<mxfile host="65bd71144e">
    <diagram id="I73yR76vIIJFN2Ef0S8t" name="Page-1">
        <mxGraphModel dx="1346" dy="1150" grid="1" gridSize="10" guides="1" tooltips="1" connect="1" arrows="1" fold="1" page="1" pageScale="1" pageWidth="1169" pageHeight="1654" math="0" shadow="0">
            <root>
                <mxCell id="0"/>
                <mxCell id="1" parent="0"/>
                <mxCell id="2" value="" style="shape=image;verticalLabelPosition=bottom;labelBackgroundColor=#ffffff;verticalAlign=top;aspect=fixed;imageAspect=0;image=data:image/png,iVBORw0KGgoAAAANSUhEUgAAAb8AAAJcCAYAAABpK6rDAAAgAElEQVR4Aey9PbYkx5GmPZuZ2Qd7CewV9OjV6nwiW2OL0CCREiRIbAUKJChQsKf6zlM8D/jS6OaRcX8zM0zIY+Hm9u+vu0VkVdz8X//7f/+fr/OZGgwGBgODgcHAlTDwv66U7OQ6m3swMBgYDAwGwMA0v3nynSf/wcBgYDBwOQxM8xvQXw70c+c/d/6DgcHANL9pftP8BgODgcHA5TAwzW9AfznQz13/3PUPBgYD0/ym+U3zGwwMBgYDl8PAYfP705/+6+tvv/32+4fxR9814fPHH398c7/Y/emnn77+4Q//9ua2P7pG42/uZAcDg4HBwO0Y2Da/L1/+8+vPP//89Y9//PdPbQ7T/G5f0AH/1GowMBgYDBxj4MXNj6clnpp8Kvz++++/NUie0OT98ssv3xonzRP+3/72P9/mfv3116801t0CMY+ctnzyoxHKu8V+2lFev8wR0zz5HQPFmg2dWg0GBgPPgIFt8yNBm5nNx6QZ2/DkVeoTG82PxqM8tNpLXeR54rRBaodxPonCpwF39uE7j33lbXbT/GYTJ+7mevAwGLgOBg6bn2CwCdJAalNRBkpj88kMil6Vt5mlXl7XecdSZdNubXL4RT5j4Rq5bH4//PDD9glUX0OvsylmrWetBwPPj4Gbmx9goJnYZKQJEp6keMKrT2zZpLSze/KrTc6xVJ9pN+NRTqr80OcH9KzxrPFgYDBwCwZONT+e6nxygvo1po7ya0n/TfAlT35phwZHQ8VO8vFpPNkE4dv04OfXp8YpRa7+O6BzQ2cDDQYGA4OB58XAtvnRHPJrw2wUNiXnbYQ0KXj8Z5W//OWvL/raE8BpB5/ffffdtzF8/OjTeLrmh3zNwTid0wbj+UwNBgODgcHANTCwbX4DgmuAYNZ51nkwMBi4Ggam+c0T3zzxDgYGA4OBy2Fgmt+A/nKgv9od7uQ7T3WDgX/FwDS/aX7T/AYDg4HBwOUwMM1vQH850M9d8L/eBU9NpiZXw8A0v2l+0/wGA4OBwcDlMPBUzW/e2/uYu9ep88fU+Wp34pPv5+Oqvjb2zGtyqvnxjhyfjy6Qfo8W4p4O5VWNVryjnG6Zv7U+t9i6Reaozszznqa2yJv3KX3/078A5Pyt1D+ccMu7mcTg+6D+YYbq56PrVv2/5fg12Kp1eKv1OpPfa+Lv/NS8Orl75yeWK6ZzLnHOHvOHAZK/y9X9hc2dHHPp95b9eGTvM+Zvbn4Jzrx+76A/0tdb5rKKe8V7rc/3sPnamNgY2fze6hDCDhuZD3l3cbKJ8Y+MGxrdlL/HumV8Z69fms9K763W60wOqzjO6FfZt7ZX7X/m2P3V4Zzc8y9bsZ65H7vYb5WjsdLwvIlF79YG2/n+DP7NzS83hMDij0LXu/nVHQG6/HQQdyJQCuXdQt6hyMtCpN/OjgccsVQbOcc8NuARB3+Bxjsp+PhdxU++gAedzBedBBW5ADp42pXCO1u3zm9XH/hdPTMv1gG5W+ynr6xlrXP6JeesC9f4T1ur61pP6wW1tl++fDlsftU2dl1f5yovcyN+5bNu5sxch2dyrTjB58rOrv5ZT/128vgUZ1Lrn35dd2sArXWAV9drt19WcWJjxe/s3Bq/dcD+2bwyHvGZ+NKmdUt5/Z6Vx2b36fCGPGuiz6pvDYmvzrmW1MY8kOG6s6eNlV3sJGaMC5r2qYu/tpM3phnHqp76/ix6U/OrhSFZimkBLAYJWgQSInmKYdEs5p///N/fDogVmPIOovrt7AiEao8YiBG9LDB28WP86nXxm692zEs9KPaZV6bOMa8d/SLL9a1+lTeXWp/q0zirnPrGY8wpr8yKVj+M804TO9bdw1hq7rfY1Y7rxbj6XtlJXurKX9XDeJWBdutCvcA/8XA4JJ7h13p2dmr9Xd+aI348VNK+8sRadeCt8sz86jz2XCcpdbGGrl36Mi7sZpwr/s5O2jTGrm41buWldR7bK3xWn8RPjiu++UjNdydPHMZUKXripM7BZ52Jo84ZY+VbW+bR5yOPh5SMu+oyptbctNWY9Zc1qbHrJ2WwudKVTzzV1yqu9+Td1PxMwkC6JDs5F8MCo0+hkXeTSbMo1V5nB7vEVuOqY+On6PhXT371l/oJnuQDBPSw6UZYxbLi6U9qHGk//Va51dg6Sq0nscFDZ+WnxkettVE3YsaH3ioO/OnHGjmGdvZT1mtktVd9p83VNXrqOl/j7Wx2ch0Oqx3HnR3nocSmHNTaS8WBNOW5rrbMldzrujunP8dSdJhzvNsvxiclvi7+zg5+VvHX+FLmTF7VjuO0RwzyoeYjte7SW+TJ1xomrX5zbneNPetb5agHH/jgk2+1lL3Fn2fzKuZaa8b4MAbjqn6O6rnypc2PoIfNjwBro9gl6QIQvHLdYWFxVomu/HZ2bGL6g6Z/x/pZ2WauxpP2EvT48wmXa+6soPwBbn2kbsfTn3Qll35TbpVDzmur0gRyjTHzqno5rnrVbx3jE17a6K6tJz7QI09q4CGU9Mgm+uhiQ3+rutV8lK15KNfh0HkoNqxnZ6fKKyc1Dmknz3ydU0ea6w5vVYeUJQbHnWwXZ8fv7OBnFX+1s5K5Ja9qx3G1J19q/tKz8upVWu3U+W5MXBXPyFacI8c+gTIvDvHb2UZm9eSHPOebDyuMwT8+tYVdz8PVedXVU/3PoofNb1WUungmV4tMkSjG7rDIryOyCCu/nR1k0a1xsdn0n7a7TdjFX+3m4mMLIHCnZRzGUnOrdo7q1sljf1Uf5KvPzNtr61jtZ17KrmjVy7oxx5Nibg6u3Ygre8mzntxIEE/OcV19w0Mu/21C3uqgWNWtw0nmlTatn7aIicOhxmY9OztVXjzAX61jJ29dVjrM+TFuxsZO7s5L63ohU2+Akd3FuYqls9PZ6upWYz7KK+0Qs/jM+Du+Nakx3iKvLvElPol/dS6lfP22RZ26j7BdcU5s8KDYZD1zP+onabc22EcXW64p9SQ+KDaMIWW4XtU5fX729WHzqxuBgEksi+umtRDenbuAFIcPxfKQcDOhqzwUOeys/HZ2LHTaERB1DhvdQnfxVxvaRl6dypNvTALoTN12dV7VB5+retb4XZfKX+VgjtAqT27qEA9jbOdPUKHXxZq285o1ysMi52pNmKvy4Ax9a29c6Hax1NywqW3tWDfm+FQ8VxvWprNTc8l91K1jh5/qgzxrPMaPbFeH1dxuv6zixMaKv7Ozir/yjP8leZEv6wgu/Km1tF/5q/hfIq9OxXPNQbwpb66M+RBP4gneDucZf9XTZqXEQJ3kYyPjYGweyLov0r78W+upr8+g2+bn5ga0HxncZ/ntcqyHVJXbHSRV9i3Gb1Wfo7zeItZ7svFWdetyepR6vncduvq8N//WvDjE85B/77gexT7nPI2M+twS8631vsXWZ8hsm99nBHSPPrtDzbvJvGu7x/i7mLq8Ovnh/+MrxFUtpp77+qxq9hm8aX79Op3FsE96PAU+2jk4zS/+TeQzNuL47Dfi1GZqMxgYDLwXBqb5TfO76SuO9wLg2J3DbTAwGPgMDEzzm+Y3zW8wMBgYDFwOA9P8BvSXA/1n3GWOz3m6GQzcFwam+b1j8+Mf1vO/Cg/4/wH++U8H/6hFh4vBz3GNutoNf2p3hIE3b37+d9nVOyBHwdwyf/Z/I31mPG9xeGHDWkIZ31Kn18icrfFLffG/ZR/tf4iZ60tqhA43Q6yj70tpb0UrfhLLL7mpwl7+F3/G+Y7WKobhTRN5Vgy8afNzc+YGe+vCnTl07i2es7XgPRr+qgI5n9V9jfyZGr/Wj3814jV2PkP3JTWi0b9Fs3+Jb2o0zW8a2WfslXv1uW1+dZPl5uFg5u6Vu1jvQrvDmibEX3RZ/YTQyg7F8h26tJ88+HxstCs7XTweBNow/i5f+PghB3S8a+/isekiq218dnZqPOmja36rfDlYiZH4oNzV6z9jldfFYx1u/cmql6wvOfN5bUNY5VXr6Xrt+Kt6dnmlTzEEz5w6igx7KOfTluvS4Uc91wcqbxU/c8kn1oyTOXCCP+0MnQZ5FQy8qPnVzefXJ9kcs4BuZjde6nNAu4m1Uzdj2k1dfVSedlJPWSibPpuK8is7xAyfg8m7dugql/TBdbXX2YGfT0DY1hfX9dCqdo0fHeJkzIHvT+2Qb8ZmXWo82pFvjubb1e0166vPuuYZ763X5oUtDvWad8fv6rnLq+rsYqR+NkmptU0945fX+aj8Oram8BNX1T71meY3zU68XY2+qPmxidzEUpqYh2QtYnfodHaQrweGh0Xd6Pjq7HTx1EMgbdZmjN+c198uHvOvenVsHPDzkMI2sWsHCo9ao7PLFz0PNezaBFb1rPHkeFUH4zUu5V+yvtowVmzAyzh9ElJ2RVOe+rguWa/UW/G7enZ5Yc/coWl/d41vfKVMF//OR/XdxV/Xq46pPU/3Gc9cTzO8CgZe3Pw8ZLJQbC4OTQ8y57pDpG5G5dmUHHxQeClXN36d14b8VTxpD7m0uTr0c1675l/n0n+dq2PjoD74zRuJWkP9Iqde+uKag5SPDQV/Nr9VPWs86PlEvKpD9av+2fXNuKvNnDu63uFE3VWzYy75XQxdXuibO1RfRxSf+FLuKP7OR+V38Vd+HRvH0Gl4V8TAYfPziYQNxwHKBuZafhZNGQ7g5HeHSGcnD2F0OYjxi82VzoqnLDHXeNI+csx72JuXuZiv88jnIdL51n/qIZtj7RDPLV8/reLEjx/m+WgPfzY/m1rWs8aD7i7frm5n19d4ocacvFuvM57Mq+p3PuR3a9jlhf1Op/rOMbVlzeUdxV/XR73K72JJ+8i4f7VDLPCYkzf0H/tpavHctdg2PxafA4InEv4NKX8KhI3jkwoUOeTdZM5x2O8Okc4OB8XKb8bEPHLwOjtdPOaFjTwA5Ge+2Fg1Lfyu4qk+8aG+1JiJ34MbOT/I1ZwyzjpH3H449Gh6xGHzW9WzxolPYtnla32ybi9ZX/LHjzcb1vIsvSUv61bzle9aWHsoee7yQidrIQ538SPDuqXMLfETj7gh5ozTNVvhAT/aR6/+1BQ6WYOMa66f++Cf9f0/Xw+b3xTp/TcBh1Aenm/RFG5Zt9rkbtF5SxlypoG8pc2x9f54nRpPjZ8BA9P84mvDz1rQ+kTCnX19QniP2D6z+dWG/x75jc05pAcDg4EOA9P87qD5dYsz/Nm4g4HBwGDgfTAwzW+a33ztOBgYDAwGLoeBaX4D+suBfu6k3+dOeuo6dX0kDEzzm+Y3zW8wMBgYDFwOA9P8BvSXA/0j3Z1OrPM0NRh4HwxM85vmN81vMDAYGAxcDgPT/Ab0lwP93Em/z5301HXq+kgYmOY3zW+a32BgMDAYuBwGpvkN6C8H+ke6O51Y52lqMPA+GJjmN81vmt9gYDAwGLgcBqb5DegvB/q5k36fO+mp69T1kTAwzW+a3zS/wcBgYDBwOQxM8xvQXw70j3R3OrHO09Rg4H0wMM1vmt80v8HAYGAwcDkMTPMb0F8O9HMn/T530lPXqesjYWCa3zS/aX6DgcHAYOByGJjmN6C/HOgf6e50Yp2nqcHA+2Bgmt80v2l+g4HBwGDgchiY5jegvxzo5076fe6kp65T10fCwN03vz/+8d+//vTTT1+hFPZPf/qvrz/++OMc2NO0BwODgcHAYODFGHhR86sN6TXdfmfrD3/4t2+Nj4aXPmh+33///T/xcv5er83nt99++/rLL7/83tA7/q15vOaGYFf/6h9Z4iZ+Pr/++uvXL1/+89s6ZA7MccMCr9pwjB76t8iqo4+sXWen41Mr468xginnVvjKOluLrMEuTueejXZ1frY8J5/ne6q96+bHAbR6yuPg+fnnn38/eB8NmF3D6fhH+eWhfCRb58/4rLKsjw0Eulqr6o8xdnL9unWuuvrDFzY6Ox2fgxq/zGMbe3y8PorfOmvny5cv/5SH8dY45T8b7er8bHlOPs/X+FjTw+bHgeDdsHfcgJ4D6Icffvg2l3e/eWetPHfsf/vb/3z9y1/++rstDoi0rQ8PIHU4aFbgy4NrNQ8PW8ST8/LSt3Eil/FnXmkjr30aMX4P084+utbPQ1h7K37eWWecycc3/rSzoqt4kmf8Ozs1vn80gX9uKiv/ybOJyMMnucHPmlNLc/6Hry/fsEcsOzuZR9pPPjbBZc3LuKC7OqOXTVz5v/P+EWfaq9eJN3PFLnESG+uSNan6jjscruy7t+p+xFbmazz6qLSrP/FX2Rk/ZwN55HU9bH6ZnGAH3GwMD3r4NEMPKMEv343pwcN83r17nb48mNBNvtdpW16lxIectvDLgcI4ZZEhNg+FOp+y9Ro961DnHGvfceYvD1r5dWzO8PPQrfbT5uo65auPlby8Kkve5J/2lN1R9PiIC26ixIC20pdyzCW/s9Px0cePmCJ2xuKjNht87epc57s4u1rgF/vYQcb4GOf+Ih9i7ezAX+Gws2+c2sSf9ZdmPNar+u/qbD5VfsbTAO8JA4fND4D7VOATRm4WknHswWWC8tk8q6aTunXDeCB1G+9oHttuzu++++7b5v6P//i/3w4JfK3yQocDgTzJxTw6an41dn3Xummn06t8YkgbXHM41TrXsX6SdvlWn6lTr5HlUDYmYmF9sO1BWnVWY+R56jCXGkNdg7Sfsp2djo+utsmBGMCldYYSL9TYMq9aZ+xlc+ziXNVAP2k/c8M/45VctZd6ObeK1zVb7UfkXVup8mnX612dlRk6De9eMbBtfjQYDjsoCbiZ6mazETlvssq9R/OrvvSZVJm//vWvX2mAfDhsurxS10MSG8nPa/ODJv/IfqdX+caftrmu/Dqu8rt4qs+qm+NOFv+7QzJtcI08hyuUMfHlExBPgjYlsINtD+OknZ2OT/wZC3LiAX/eaJmn8+rUMXI2v6M4tZF0ZY9c9W+8VS5tcF3lna96ynX7scprp6PI79ax0xv+NMR7wMBh8/NQcnNzWLiJ3Jze8dZDDL6H4upOkwJgwwMkC9JtUGWwzcfxihIP/pEzNuNY5VVtHPmwJjUOfZGbMtRN+7V+Hb+rTdpHhhuUtK89acrXeDof6ibdxZ1f06XO6rraIXbjp5Zcd3Glbl7jRzsdP2NJ+3mNDIc6uMm6IVPrXPWqfRtZ8vM67cMnd3Wk8I+akmu6w2HaR959kPHs8kk5r5HPOK2/80Onyd0zBrbNj8ABNHd3/KM7XxN5MHEQeBfOBmBDIc8GlI8MG6TbbBYmdbCf/BzLv3WTIueh7AGhPehRXsav3xXVhzl7AN1iHx0Pj6ynfGL27rqzj55PtKv45K3ica6rv/NScjVeedJah8SEMkkzL2XhZc0Z1//sUWNY2cHPii8GqGW1SyOCx1zGYN2yzjXXXC9zrHHKrzRrr9+qSy7EUXVzXGMShyv7u/2YdSMv7aSvvE551zHn53oa4L1i4LD5fWbgHlZssIyDg+BoU6b8XM8GHAwMBgYDg4HEwF03PwJ9yV1wJjjXA/jBwGBgMDAYqBi4++ZXA57xgHgwMBgYDAwGXouBaX7zt/H+6Svl1wJq9OdQGgwMBh4BA9P8pvlN8xsMDAYGA5fDwDS/Af3lQP8Id6UT4zw9DQbeFwPT/Kb5TfMbDAwGBgOXw8A0vwH95UA/d9Tve0c99Z36PgIGpvlN85vmNxgYDAwGLoeBaX4D+suB/hHuSifGeXoaDLwvBqb5TfOb5jcYGAwMBi6HgWl+A/rLgX7uqN/3jnrqO/V9BAxM85vmN81vMDAYGAxcDgPT/Ab0lwP9I9yVTozz9DQYeF8MTPOb5jfNbzAwGBgMXA4D0/wG9JcD/dxRv+8d9dR36vsIGJjmN81vmt9gYDAwGLgcBqb5DegvB/pHuCudGOfpaTDwvhiY5jfNb5rfYGAwMBi4HAam+Q3oLwf6uaN+3zvqqe/U9xEwMM1vmt80v8HAYGAwcDkMTPMb0F8O9I9wVzoxztPTYOB9MbBtfn/8479//eWXX77+9ttv3z5cwzu7KOj89NNPS93d3Fk/byH/5ct/fv3111+/5UvMf/jDvx3miwyyWZ/OTsf/05/+6/c661e71l8+ea7kj/L//vvvf/fB9U6+i3Ols4sT+cQRtcX2jr/y8RLeKt8zeeHzrDw61uOt8WANVvatcdZXuRV+tAUFSz/++ONT4yGxkDU6u75n5d8TD3kG7NY417erQ+LhluszdbgVh7f4fUuZw+bHgcvGwimFO9okq+B2DW43t7L1njxi+fnnn38/nG/NFznqZK06Ox0fIOGXeeuMzZortYd/q3zq35oLOl2caW93bZzK4HuVT8dX7zV0le/ZvM7KGy++3xMP1b54+PLlyz/h13ikdV3k5+EoL+lL66CN6rdb946vnZdS60Me2DDfs3mdlTfeul6dnY5f4+/qZF76lcqvduQrdyvt4rxVv+LhVr23ljvd/Cg8QZCAdxt5h1u7PPIUy8bgPOO0oS14yPztb//z9S9/+evvPl7ilzhZcJ/kMk7msJm8CgZiYR5+3i2mnoDi4DHHnR1suohpP/nYJH/qoKx1w3a1n/LKWc9af+0lzXzgV/sZZ1cH7ekfG/LQz/GOr37Gj/wZfuJNX9AuL+RTzutOHn5Xh/fGw8q+8dZDST7U+rkO2HFfUOvE3zPiwX1MLciVHLv1fSQ8uMasL2cG6wpvtb7ktapDlc8zkbn3xoM5fDQ9bH4UwoOIw50i1yATRAIrZSi6jYH53Gg5p44bVbmVDLJn/CqfOdRFZcxH/z/88MPvcesrY1GOueR3djo++hkXeTvGrmtgPXbyyODHWkLZCGwMPqxlHtzMI5+A7+IkllUdsLGKEztiR2p8jqXm5nzGz/UZfpfvLq/qj/FOflWHj8ADuMB34s3Y4eU3F/BX61LlzEU75P1MeCAv1wa8kS+83fpai6Q7eWuY66LPul6dnY6PvucB8bAXcgxP/1zv1teYsg4Zs7bSPnG9Bx7w9Zmfw+ZHESgOQVIEDymuPbig8GsRTQx+PcBzLn3AZ4HyLkZZ6Bm/ACJj5DoXNe1qm6dNZCpgmSdHbDCnvPXI3IlxZafjo6tt7KNL/tQhY0RGfyv5jCH1rINxQ9+yDumL64zTsb5TFrnkd/Gf5WMz18l8d/XPuLw+kncNzAF5eOhnzJ2djo+uthMPnX3jRa82P+eg2ORDvMYJv45Th+tdnNrNeld9/co3BsfSys8aKgM9y/fAJw90OYu4PsorfXJ9JE/8WQfk4dWYOzsdn5i1nXjwfDA/cVjX07Fy+Mk6MI/d/Hzk+VDr/FHjU83PO2ooAIISqMU9AqVPUi5aBYVJM79qfmf9Gpd2j6gggCKLv/y3OOInLuYFUgLG685Ox6duGRtybprKX4FS+a7+5JHNtJPT11GcWQd1kqKfcZILvJThuvK7uM7yu3yP8qrxHclnHd4bD0f2iZ067Zqf6wJNfNXxa+pQdRnrlxwY13VXp/LPrnsnX/27r+GzZ6HEIB87xpT0SP4j8VDXL/cbcdZ5a5ty5lvlM+fV9Zk6dPoZx0rmI3inmp93MhYNkLgpKa7XyGXwCUrmMnHm6obFTtf8bEb6OvJbbWdcxJKP8xknctjmw7W5r+JlPnXzOu10fGT8dPa1s6qtOVqTnQx2AG+uwVvWYRUnNcSnOUorv4v/LL/W0Hxvqb+xQXfyn42HGpvxioXMw2vqTdy5f7HDHhDnyD4bHjJf8nsmPLg3cn9lvrm+ya912OHmvfEgPj+aHjY/NoZPNHlgslng8+9HfE3n5rHY6lC4ulGRzaaDjPLMsaCr5kdxzvh1gbUNxZdFrota5c0XYGW8jOu/m9UckdGvdjr7Ahj5tLuqJTY6eeY6HYCPbXxkLui8tg6dT2zzYc1yc+74na2z/C7fbl2MqdKVPLysIeNcN2wQL+sOZbyy0/F362t8ab/WhjXWN3GKw8S++4j577777vf9i/1nxAM5WYe6dvJzn1rnSlfr+Jl4wPcq7m59b6kD9UisvDceao0/arxtfh8VxPj5x5Pf1GJqMRgYDAwG3h8D0/ziK8cB3PsDbmo8NR4MDAbuAQPT/Kb5/f418D0AcmKYg3EwMBj4CAxM85vmN81vMDAYGAxcDgPT/Ab0lwP9R9xVjo95ehkM3DcGpvlN85vmNxgYDAwGLoeBaX4D+suBfu7I7/uOfNZn1ucjMHBT88v3iPJ9po7/noHn+1ur91uq77Py6PueVb4P1Nnp+Kv3gYwt37XJ92mcR5f3dBhb46y7cqs4nau0i7PKMdZu9/6TMTGfcXX8lY9beLfU4Uxe+Dwrn/W4BQ/WIOuCjY6fWFCn1p86Uwvs7HDF/K2fM3Wo8dR9Z24fhYddPGfyolZn5dHR/0fhAZ+7dU8Mrc6TWzBxpg7m/9nnwy157WRuan4UdFXUjr9z+Jo5Nln+JQL82yRWds/KawO7bHA+2OjsdHyARJzMYzPrdBQz8h762ul+qqbGafyVdnFWuW5MjfHlfOYjD9rxU+bM9VEdzuZ1Vt5Ya507O916HfGxhy/z5XBZ/ZEH7Sj/0np38ZvvEf1sPNT4jOdsXmfl9fvReNitO7HszkBj3tGX1kGb1t9xh8uOr95H05uaH8mxMWtwK369KyBh9M7yse2dhXdYHg7GgYxz8pJ28vC9y0aeGLUj0N7jJ4oAmQ014+Qav8RkzuSmTAWn8n+/EfjHTykpn/nAe0kdtOW6YUPeat2ZW/HVN68jPJypQ5cX9TLWpJ08/LfAg35X60Uclc8Y3Flb6kd9qNmq+dX4qRVyyGfdxLK5PyseyE98UZtaH+pZa2FNoJ08/HvCQ43TdQc/3XliXeq+I+97wkOux0dfb5sfRbJ4UjeoYyl8gne+JnKWn/ouPvHwcWH5Q7Ld4qO/k9dmAki7zCW/s9Px0Scu7FkTxoKWA4u6ucHwlU+0xmYN6nwXp/LElZu+ixO7+sp8scMYG8Tp2mLH9Za6ro6l6mgLcPQAACAASURBVDhvbNIVv+ZpbOrU+V1e6iTdyesr69DVeWcHfzVOY1jx9UHdiAHZ5MEXS8x7jRw1ZJwxw69yxPtseCDnFT7J1fp99vlAjKzHat07vrEnHup6uu7deSI2qAXX9XNPeKixfeR42/wMhGK7MeVBK79uQmXP8tFjgTxIofiCt/qpIEGmP+mRPDYTZMjDQz9j7ux0fHS1jX1/oogapj9BDdUvvusYe9kcuzjNu9JdnMgaK36rrvMZH9cr2crPGqbdjl/zruNVHe4JD8RHnjVOc698DzrWhzkOc66Vl1JX6w8FQytcyYdmk9SO9FnwYD7W5ygv5aVH8tZarCPvOrBe3ngc2anrrv/K3+HBWFbrbnxQY5Lqa0eP4te3fqot5q0Lc1yvZDt+tfdR47tsftzRcBBAKQSFtHAsvoVlPv9trRYNuZ38R/8EiXdqgJxY3UDmZ/x1nJvEDUJe9WNdtCM9Uwd1kqKfh6lrkTJcV775QVO249e86zjrgL2jvNLnLfKvxYN51jiNo/JrXTs81zpoT75U/hFF/tZ9sbKF/j3gwdiM5ygv5aVH8veOh+48AWdnmt+ZOli7pNbfc62eA8p2fOc/mr5p8/Ng5k4iEznLz0NAXQpXFxUen/SV1zt57+LqgaR+6uY18/rt+NqApv28Zk7QZL7I0Pgzr6pX7Vegkxs20DOGlDF+5o7qgAzyuaaMiT3jUC75rl3qItfxz9aB/Lq8amyMd/JHdUjdvDbvW9YLvXyCz3yxIx6oj/F3tUpbea1eUnJ7RjyYo/g8WhflpTv5e8VDrnVek1Pih31R95153wsejOez6Js2P5JgQdhoPpW4AGf5ABob/LtY/mQSC6xtFjgPilURV/Lw8jBg7L+/aYN482Bd2UF2xffAMn4OOe1yjS/mMgbzhedPzNSaoVNzrnHip4K7i7OrQ/XrGpoDsaLrWLrid7Y6/tk6rOpvPCu6ku/qkOtW67yyU3NyvTo+OKG2yCUeqrz13+Eq48GWOtSA68QavJQXU10dunis72rdmVvxO1sd/xY8ZK6rvIxzRVfyXR0+Cw+7de/Ok66e1OCe8LBak4/i3dT8PiqY8fOv/zg9NZmaDAYGA4OBt8fANL/F/4YaoL090KamU9PBwGDgnjAwzW+a3798fXlPAJ1Y5sAcDAwG3gMD0/ym+U3zGwwMBgYDl8PANL8B/eVA/x53kWNznk4GA4+FgWl+0/ym+Q0GBgODgcthYJrfgP5yoJ879Me6Q5/1mvV6Dwy8a/PjfRne08n3VHyniTkSyvdUfN9ol+hZeWzpP9916ux0fOzkuzO+F8g7M+Ykr4vfOJQ3X+xyDe10K38XZ5Xt/Cq3you5jq/eWSoeoNZAai3O5IX/s/LoWI/X4uFM/pmzud6qb9128mfqYP619trv1r3jq3eWZl5dfc7khf+z8uhYj3vDQ9bnbG3P1MH8PxsPZ3N8rfyHNb/VX6lnM+VfvKCR0Cy7pM7Kawe7HDg2mM5Ox0872HIMwPLPq50FK7liD7/Gpu0dPYpzp8ucfpUjhszriO/8WdrVR/7ZvM7KGy+5vgUetHdEK066end2rE83/9I6aO+z8dDV52xeZ+XN/17xcLTuxl/pS+ugnc/Cg/4/ih42v3pX4CHZ8fOOgzsJConsqvnVxUU2775qETp5+PnURYzacWO95ieKABOxEB++jAs+fuQlaLIOxqIe1Pqhix0OY/6WIDXLXJDNfBijgy/tWTf4qVv1qt/UNwd50Jpv6nuX+BI8pI/ERpeX9U89rjv5XR3eCg/d+q74NU5k/CkiamwtEydpx31k/nVdq/1Hw0ON3/pUvnk9Mx66de9wAiYeGQ9i+jPoYfOj6B5wGeCKDyjzSU7wetC7yTno4WGXj/Mc/rsnoJ28vmwkUO0yl/zOzo5v7FLypx76gI8feOmLMXxzZo5DDnltyMN/lWcMPw/GLk7srOpgTNUvdsxH6ro6lhqr89jMz4pPPCs8pJ7xwtvllTpe7+S1SwxiyrViLvmdnY6fusSCPX1Ik+88/uFTK/FgLsozd1Q34nomPHT12dU/6+b1Th4f1tY1ujc8HK27eZqL40fFg/F/Ft02v7rJDbLj10WpY/UBIR8W7Z5+kuYoHmImJ/Nw86BHTTiQuEbGpiFdHXbWodazjvUnvSVO/Gas6kL1K6/m1fG7uDp+Xf86tn7GeZSXcUmP5Mkr64A8PPQz5s5Oxyde11XK+nZ88jQW5P2JK/j40AbUtTBOYq11M39pFyc5IqNv66yelPn0x/VKtvKzhtqCdvyaR46xbR2sz1Fe6ZPrI3l9mBvy8GrMnZ2Ojz1jl74ED1kPYsoxvrUNNe5ag5fUodrAdtrn2pqlbOV3697x09ZnXH9K83NRoSykheWRP/8NrRbkSP61P0FyZL8uNvLZ1IwffoKn5uFY/QoOv/bhcFQ26VGcWYfU81q/2q95KVf5NU7lOn6tw2qc9TvKS3/SI/msA7niKw8Qrzs7O/5qfZFf8Y1XqhzrzA0TlDn50irvuFLkd/so61B1GaOf61DXXZ3K79a949+al3JHeRmX9Eg+63CPeDDvzIeadzhRrtIzdai6jNH/CDysfH8kb9v8BAh3HRlUx2eRbF5sADZ2PQxSt24SZKt8+t3JEyO6yORXbeqnbl4zr9+Orw3kAIbjzBeeoOliUE+KPeKufs1FOcb5NVeVN37k1d3FoF/t17w6fq6dMtCOn/UhnsSDOlnPXV7pz+ud/FEdUjevsW09d/wOYyu+8UKxqUzWx3rgO/nIZ92w8Yx4sEZZn67+yla6k380POS6Jx4SJ+b/qHgw/s+i2+ZHUC6Cd8kUesdn8yLLhu1+mkcb2OHw03bebXQFWcnDy+bAOP/jh/Fin3x2flf2jWXVJMjF+GsM8qHI3VrLWgd003YXf1eHzu8uL+ZW+Xa2Ov4KD8Zf85Rv3VbzxixdrVdXBw4R9Yj3NXhIv65vjV++BxbjikvrAz9/ukt+7iNjfzY87OqTdb4SHuq6i4eKEzDxyHgQ059BD5vfZwQ1Pv/5P5NMPaYeg4HBwGDgbTEwza/8r8UB2NsCbOo59RwMDAbuEQPT/Kb5/f5V4D0CdGKag3MwMBh4DwxM85vmN81vMDAYGAxcDgPT/Ab0lwP9e9xFjs15OhkMPBYGpvlN85vmNxgYDAwGLoeBaX4D+suBfu7QH+sOfdZr1us9MHCq+fHODe+b1HekMjDepeJdFN5puuW9nLPy+PK9oHz3rbPT8TPmes17M8Tve1rMr943Sp7y5pxz8qqfHJ+J0/yrT+3lO3f5XlnHV+8sFQ9VL/ln8sLOWXl0rMdb4cH4dzivOTM+kj9T/zN1MP97w8Mq3zN53Qsecq1X+7rWn3VAboeHlZ30U6/P1K3GU8+f1brgr+PXWF4yPpvvS3yc1XnT5kfx/OsVBEIToVl2QZ2V1w52WVA+2OjsdHztrOgqZsBk0xdYyFV9Fhg5gEod8I8Msit59V8Sp7pQfKb9zl/HT1tnrs236sg/m9dZef2S11viIeMXY/raUeLfyd9a/5fWwdjuBQ8137N5nZU3/7fGg3a7cwD+6ldrOjxc5Xw4qpvzn0UPm1/ecXBHYxNgk/O38uD5dOGhYTLI5t24fGknD1+byAJm7Qic1/5EUeal7Q6sxiutmxp+boCaF778CZuaD+Mqb912dTAWmzGy8tDP8Y6vvk8N5IZ8x8+6iQfkV/wuL+psTEk7efgfiQfzEg8V5119dvLodOuS+EbuJXWwjq4bNuR1fld89V+Lh1W+XV73jgfPB+sp9RygZrvmV/FT6/Cs58NR3azjZ9Ft8wOU+STnosEnMQ9K+DTDBIPN8ZY7YTccIFE+fclTjjkPGmjnt+OnLoU3fkEIkNn8eeC6QBmDPG1wmHhNzMgyhp9j4kpg7OJc1QGbroEHNTzseGhJ8d3xjY15rvOjXvLw2eFhxd/llXa93smv6pBrkWva2en4u7xWOMdvV5+VPH5dDyn6mfcz4aHLd1d/a5F0J//eePDMIR7PB/czvMSe166te909Sh5pp9oDC+ogh/yj4uFM3cj1Mz/b5ifADNBxHjTMOWbRHuEnishDoEpZNPlQ8oImKOEB1Dy44Al+9ZTTtj/RkpsHGT9HdcMfttK+uvrKmLheyVa+6wZNex0fm+nHsVQbjo/yUl56JI/vrAPyxpMxd3Y6vvEah+O0yVyOc5Orl/NVnnGtv3qVdnFiXztZh6qPH+uiPDmt5JJf41e+41sn5eq45nuUl3akR/LYzzogb94Zc2en45MHdvNzyzlg3MTAJ2NgLsfGjo9nOh+yZlyfqZv1+yj6Js3PJyZBAyUB+PlvXzWpI3meBHkKQ84GU4vLuLOz47tJMibzsEklWJFDpy4mfPys+NpmfuUv580DXq1b1kGdpNU/vuClDNeVX/NTvuPXPBxL1XcM3eWlvPRIPuvwnngw/loH8VH5xl/5younWn/1Kj1Th6rLGP3EY+e38mv82u741km5Oq72j/LSjvRI/qPwYDxS8sr6ypdah1q3iocq77jSM3WouozRz3jruqhT+TV+5Tq+eStX6VHdqvx7j7fNLw9hEuZRnARq8t5xVT6yfLokdvJpM79S01bq5jXz+t3xO5vJT9AQTwLIODyEkZWXlBjSJnPYyq81ujiVtebVjn6Yx2aOV/Egl3xjT11sdPwODx1/l5exJt3JE+OuDqmb19hHT13WkPnk3xq/MXT1qX6VN8daf/nIPRMezKvmW+vjuihf6U7e2iKz2hepm9f40O+Ov7KJLn5X54CxJzaqfWNWFopM9fWoeFjlYq5HdVPuI+m2+REIQOHunc3Z/URRgoHDFXk+ye+SWsnDy8OAcf33twqslR183sInVhYHeQ5CfJkzfpJnbsaH/ZqnGwDZGjc+Kri7OLGtH2WwR0zwjcXYkeFTD50dv7PV8Vd40Kc1Eyfwu/obU6Ur+a4OrIv6xMs6QHd+V/aRX+VVa5DrXOdYg8pLeX3g35ilz4iHLt+u/tai0pU8vNW+eEs8pF9wzRrtzoHVfuzw8Mznw9m61fX+yPFh8/vIYMbXP/4dcGoxtRgMDAYGA++HgWl+8R9PBmjvB7Sp7dR2MDAYuCcMTPOb5vcvX8PdE0AnljkwBwODgffAwDS/aX7T/AYDg4HBwOUwMM1vQH850L/HXeTYnKeTwcBjYWCa3zS/aX6DgcHAYOByGJjmN6C/HOjnDv2x7tBnvWa93gMDh80v322p7y2tAjorjw3fe8l3dzo7HX8VC7x876TGz7s73bty1d7OTpVlfCZO8zeWGme+L5TvDXb8VTwv4RnXLevS2T9TB22c8dvZz7XNmuFjZR9+6nANb7Xu6rteUOSMf0W7OFey1f694GFVnzN5ketZeXSsxy04vMU+a8V7newfagtdrUPlGcdq3W/xm/bOyFe/H42H1TnTxd/xM/d7ud42P5LOvz4A+AFNF/xZee1glwUViJ2djq+dSgGNIBdAHmpHuaQtFpQ64B8+utpJOa/PxqmelJjTfuev42vntRT7t6xL5+eldbjVb2e/rpeHnXFW+/DhVWx3+IG/+iv+2q+0i7PKdeN7wMOqPmfzOitvPep6dXY6vnak4gF5zxzndrRb91v9avusvHrSj8YD9eej/y7+jq/evdFt8xMkBk3R8+5LvrSTh5933xRSOx5U7/ETRcYldRFZpA70eedijDUvZDj82AzYznwYV3nrtquDMWKT2JCVh36Od3z1vTsVtB1/lS/2z6wL9TSmpC+pwxm/nX3iYe2sWR4WK/s7PGQ+4oda7prfs+Ghq8+u/lk3rzt5+B95PrA3wIR58TdC4WUMq/3SrXuXF/bJ/ZHxQPz1/Ony7fjWQRzcC902v9zsHMiApGsaLjI6AiflLYyAgyrHXPI7vx0/dYkDe8SJfQudvjgAObz4JOg7O9UeYEj7xGWjfEkd0ME3NtyY2mGcHw/y5KWO8+YtXfG7fLNWKbOrv36S7uTfGw/mQG3wRVzyGGdeHR4yl9T12jVILKDzbHjo6rNb36yd1zv598ZDfoOVvthzxEWM8F3L1X7p1n2X1yPjgbzEuNS6MGc9POeP6iAO7oUeNr9H/okiFsdCs2h8GAPyPBQFvXwXGpqbQf6z/wQJILZW2STgPwIe3JTES/wecF1erjtUfLjuK/zIkya25CU9qhv6icfU5braZ2ysKVv5uXYp1/GtgzgX//L1CaU+R3mlT66P5GsduvXq7HR84sW28Tiudcgx+TFWZ0Wxyafz2+kfydc6VN/6lc/YtZEHrfzML+U6vjLVThd/x+/qoP3PotvmR0FzU/qVUZfMkTx3CDxtIecBlRvN687Ojs8CdUVkLg8z72Rtji4+9nd2tH8k18Vp3bIO2kyKfsZbwads5ZuHfpTr+Ks8XrIu1Z9+z9ThJX47+7V+rPfOfocH86r4MT/pqo7OQbs4tX/PeCD+rj5HeWUNztZht16d3x0/9zVyjOu+MM/Kr3k41k7n1/VVXnokfy94MN56znTxd/yuDtr/LLptfhUEFCFBVIPeyXNXIODyKwhtpG5eM6/fHX9lE138ZiOBh52UZ9G800u+sSWtuvrIrz27OJXd1QEZ5olbv4yJ0bG08j0wUhfZjr/KRdvSzCWvmcc/H2Ur3cm/Jx44xFhH/BOT60sdjDFj4zrXPeVX+NEGdFVbdJ4JD119sobU4hHwQMysDbHW+MXkak1zzeu6Vzu1Do+KB3Mmnzx/unw7vnbujW6bH8GStE9ktYmsklnJw8vDgHH+4zJ2auFWdnbxpDzxAjgOQfwYP9Q4ck5eta8dNwPjGjc6FdzVjnXr6kDuxGCc2MOGnwq+Hb+z1fFXddM+9NZ1SZ28TvtHdWBN1L3V78o+Nqih9cz17eyv8JC8amu3Xs+Ih6xF1rOrv3WudCUPr9qs++y1eGAPsYb48Se36p4Qn8Rc51jTFc/8Vnk598h4IIfV+dPl2/GtxT3Rw+Z3T8FOLP9oiFOLqcVgYDAwGHg5Bqb5xRPWAOnlQJraTe0GA4OBR8LANL9pfr9/1fhIwJ1Y56AdDAwGXoOBaX7T/Kb5DQYGA4OBy2Fgmt+A/nKgf83d4ujO08Zg4DkwMM1vmt80v8HAYGAwcDkMTPMb0F8O9HPn/hx37rOOs46vwcBh88v3e/I9mJ1T34vLd3c6Ox2/s796j0R/vosFRa6+G5Q2V3Zyvl6fibPGU+uW7wvl+0wdv8ZyNK52MldrZExn8sLvWXl0rMdH4cH65Lt+XMtf0ayRtVnJyTtTB/OvtddWXS9sM9fx1buVrux0+Z7JC/9n5dGxHq/BQ65t7qHOPvzUEQ+rOhif6+V5go3uc6YO1X7F22q98Nvxu5g6frXDmBigVedMXuiela/+PnK8bX4UI//yBYDhhcejAJGjmBa0s9PxO/uABv/oCSB8cb36K/vIGUPaZIHyL4Bgg0/K5PXZOFOXa2JO+52/jl/tHY2P7LDhreOZ9X1pHYjnI/FAffB5C1aRvRoeunzPru9ZeXH7WjzU+MVzZ7/Dw9nzRPuVvrQO2vns84H4V+fk2bzOypv/Z9Ft86ugYpG4W4Ofd1uA2bs4gfmRP1F01Pz4W3ncvRlzzYuYaZ7YYSEyH8ZV/pY6uKDYBFjYkId+jnd89b0LJTbkOz5znX31vFHo8gLExpS0k4dvbZHP+n0GHrrNTGzEQ6zUU8zWvJ4dD12+lS/O7xEPnkOsKXG6L1Z42+Eh8Y0NPuwt90jOe534htfVDX63L7TlPkZWXrd/V3z1X3M+WJ+jc/I98GDOn0G3zS/BwAFOcbxDcMEtHNSFYC75nZ2On7oUBXv4xb5FSl9eCwBlscMmwU/aqfZYVHWQQ96D0TE8/RzVAR19ExP2tWOMUuaw7ViqjvPo52fF39lR13Uzni4v5ZMi28lrN9fOejGX/M5Ox09d4qnrBy992bw4wKinB1Bnp9qjts+Mhy7fXf0TB17v5PFBHbPmuUbJ7+x0fHS1xfriq2Ig7Xd4MI+qm7axn1hAlrie6XygVqtzclf/rJ3XO/kVHtT7LHrY/HY/YQO4E3wkD49kEnzwV3Y6PoXCbn4qAPGjr1o85zKGGhMy2n+WnyiyDuTmgSAP6qZ2rqs/dUs9r4/krWnah4d+rkVnp+OfxYPyxgEFP/Jdd6i4MnZ4V8DDKt+u/veGB3FMvMTmwc14hTfXveIBO2IbPXXlSXdzyBzVDX1wpX/tSqt9xivZys89pS1ox1fmyI76R3lpT3okj99dHbTzUXTb/Cpo/EqB4hAgT0DcXSMnIEmufjo7Oz6F6orAnIfWSga7yLiIxusdYIIefeVXtpzPRdvVYWUD+xkvscGrspVf41e+4ztf7civcTDe5aWe9Ej+XvBQ19l6ET+1MZ+OHsmdqcPKB/r3gAdjM9+jvJSXHsm/Jx6yfqz37vzp8OC5ACbSnvlJrY/jSs/UoeoyRj/9d/u38sW1eWi74zt/ZMd6HeWlPemRfOJBnc+k2+ZXi0jR+BCwd1nI5H+aMJnUzWvmtbPjr2zqN4GiP6mbgPiqfWNWFopM9YVcfq1R7Rg/+tpc2dEP8sjlGKA4liKX/MxFGWjHV6baSZ20v8tLW0l38kd1SN28xr713PHrGhkXfisesJPy5IxM5Wsj6UoGH8+GB3POfLm2Tsy7LspWupN/TzxwOLO++Ccm15d9YYwZG9crPCC/wo82oKu99mx4yFqRc67dR+Eha/5R19vmRxAAyyc5Dxl4eRgw9t9VDLwWdGWns1/5+GdBAL3/WcGYjAMqD1lsEEPyjV9AI1/jRq+Cu8ajna4O1a/xYIfPqjl1/M5Wx+/sEKtxGwe0W5eUyeuVfFcH1ktd4sU/dOd3Zb/K34KHxIoY6excDQ+7fLv6u46VruQ/Ag/sKfd7rq/xVbyt8JC8aivPjbp/n+18qGdJnhOr9bXGK7qSvwUPK1vvzTtsfu8dwNj/5//IMvWYegwGBgODgffHwDS/8r8oB3TvD7qp8dR4MDAY+GwMTPOb5vf7V5OfDcbxPwfiYGAw8FEYmOY3zW+a32BgMDAYuBwGpvkN6C8H+o+6sxw/8xQzGLhfDEzzm+Y3zW8wMBgYDFwOA9P8BvSXA/3cjd/v3fiszazNR2Hgpubne0H5Pk2+I5PvhXT8TIj3PnjXrb6LkzKra+PwnRwotpC9xW/aPCNf/Wa+2Mz3ZPK9wY6fcayurQ9zqzhrPB9VB2PV/1vhQbtQcnd9rbP+5JvvDj8rO+mnXq/qXGUc13iM0/lu3Tu+eh09wkOnB/9MXi+RR8d6fBQezDff9avv4ikjHTz8vaneGx5cn8+gNzU/gMUG58MG5pN/MYF5m9mKXxNzM2NHm1VmNWaTrf7aehfPyga8s/LVDrnmZuM6x8p3fOc7mvVZ1fOz60Beb4kH60Be4sgDFV+7fFf4YYNTN9YZ20fr8Oh4sH6Vns3rrLz+PhoPrilYMYYdHTz8vfGdXd+z8q7BrXhQ/rPoYfMTOG/5E0XcuXvIcXjxN9/g5VOTh593+7tD0GZhEbGdd6Ho5riTh58xVD3sGxey6S/HO776mRfyeUdmfbo4u2bQyQNiY0raycPv6vAeeMi1yfio/27dyWuFn5oXMXPTRN2wX9e1youfXR2M0/VEVh76Od7x1X8NHqjDyk6X16PjwXVf5ZH7SFzVOlwBD7fUQZyv6ghma92Uh/8W50Pn1/3y3nTb/NxQJJuAy0PJwwfa8dHNJxiLCh+AomexsYNfCi3fIhiPB4WyO7/oMu9GcAxPezRfbBFPxiYPHWO1MWnHWKTG7VgKHx3nufbT1afLy7i1fWsd9Cft7Hd10O9b4CFriz1zMLb05XXN1zUhD/S0I0UPPjVP+8g/Ex6owwpXu/W1zkl38tQUH/hy7VwX5pLf2en4qZvr6PrBS182r6v8ZBX1WZ2fZ+u5k08ceL2Tfws8kJe+PoNumx/JA3gCS4DCP/sTRdrB1qpw1YcbbFcUbPLp4umKeySPTQ5a4lz5169zjFeylZ81VBdqPeQ5PopTeeO5VV69I3nsZh2Qh4d+5tLZ6fjkZyOTZnPCvjkZa1LnMoYak7Fj/9F+osj1N2fHXT1rHdTbySuT9EjemhIPesjD4zpj6Ox0/LN4UN44oOBHvpiCiitjvwIeujp09WftEgdeH8lbU9cB+TN46Pzq/73ptvkBnASS1xbXpLkT485kx7coJIQc49ww8L2jq/yuCNrp/HbFPZI/+ukN9N1UxEYu8Gqcld/lhe6qPkdx6k/9W+VTjzVFD57raN2yDt55i4Gknd8dP/M1HilzWV/5UuwiU+spfvKJAR3l1a+0i3NVh6qr/YyX2LBZZSu/xq98jdfxLk78G2/a2a2vctKdfWTuBQ91na2jdTKfjh7JnanDygf6n4mHLr+jvGouR/KvxUPFa/X/3uNt80vnAgya18iwqVeHkfw8VNHlK6eVvHcOHrSMM4a8TpkuHuWxk19z7eSNAZn8qkFbUGLP2BgDlJRRLvkZc8reWh/rmbppc5dX6ni9kz+qQ+rmNbaNc8fvaovfPDiMVbrL15iVhRJD9YXcM+Eha1Jzz6bouqRMXnfrhYy1XdWT+dTNa+b0u+PXNTKuFR5qDOwx8+zsaK/qwn82PKxyJM+u/tam0p38W+Ch+vvo8YuaH0F6V8CdZR5WHZ8NgCyHznffffd782PsU0TaofA5R7FXPAvW+WW+gruLHxt5KDLmH3Z3frFFbsgai3TF72yt6tPF2dno5I1nRVd16+pAk9YGMXjg7Pyu7Fd51p81wj71Fg/ipcu38sWPzQD9/Id5Y382PJBXrQU51jpbH+uwoqv1ukc8JFbqnk38UIcr4iHXkXrcKx5WGPwo3s3N76MCGj//+I8wU4upxWBgMDAYeB8MTPOL/3U5IHsfkE1dp66DgcHAvWFgmt80v9+/yrw3cE48c2AOBgYD74WBaX7Taguq5AAAIABJREFU/Kb5DQYGA4OBy2Fgmt+A/nKgf687ybE7TymDgcfBwDS/aX7T/AYDg4HBwOUwMM1vQH850M/d+ePcnc9azVq9FwYOm1++T5PvCfHeiO/T1HepfK8m378hgdTZvXeivvahvLeyK0IX50qn2s+8kM93pjK3jr/ykTxi5z2+tJ124Xfxd/y0n9dn5dG1HrlenZ2OnzGYL/WittCc766NY7Xut/hNu2fkq997wEPmktdn8kLvrDw61uOt8JDx5/tn1ll/dd13+FnZST/1+kwdajzGqc3uHOj46nXU/cJ8l1cXf8fvfJ2Vx471eA88dHF+BH/b/FjM/IsJNCwOcQoIn3mCzMVjjByA4aOMupkURcUeMhYYOa5XP12UunndxZkyu2tiwK8yXOf4iO98R62PdeMXMrKuXfwdv/NzVl475Jrr1dnp+NqRmi/yiQHnO9qt+61+tXtWXj3pZ+PBOCo9m9dZef29NR60e3a/E/8KP+4j5rHd7Vf9vrQO6n8UHrr6dPF3fOOu9Ky8+u+FB+1/Ft02Pw8xgwMEdn8o88wlOARm/gQSRV+BWLtSQdwdgilnHPC6OOHnExb2Uw9dfBGbucAjnxzrd8VX37tWfCBPHfAtH13tVBDu4k89rmv82oTu7HR1WK3Xzk4Xzypf152/AUgdMoZV3bp17+LBPnnXde3k4WcMVQ9bxoWstSXnHO/46rvuL8ED9vGpDde8y8s6GJe0k4ff1eE98GD8xiWlNny6de/wU/Mi5mf4ySrrIrU+NV/PgY7/qHgw74+i2+Zn8d3QHGI2MXlsUBaBgOUxFrhQwVl/giSTTF2v3fz4hKc8ceWG2sUpQDIe7DDGBj480LGjTylzHR87zhubtvPJzhiUwXfOd/F3fPS1lXQnbwxZB+tc16uz0/FrPumLGqNHnPBdy1XdjMfaK7vzi13mnwkPuabWzXqRq3XK/Vh1rEsnn2tU9/Rb4EGbxu9aGqc54Mvruu7gaoWfxBH2qE3af3Q8kJM1IVfyWa1jx7/H8+EID+LiI+lh81v9dJELQ/EToIwBIgnAN2EWEGBDmavghYeeurUAuzlk8buKUxCgn/6P7CNvrClb+ZljyqGLrLw6Rq82v1X8R3lpX3okX+vQrVdnp+PX/BzX+uRYbBj7ihIvn84v9lZ6R/K1DtWGfuUzJifH0srP/JSBWg95dYxe4gE5crAZQPF1lJf2pUfy2Mx9gTw89DOXzk7HJ7+MnetsTtjHj76MV+pcxlBjQkYfz/KTVeYPtQZcd3Xu+NQtbXl9JG9NxTry8NDPtejsdPxb8GCMH0m3zc+gLYZfiTBOMMO3IQrIpD75IVMLyZgCp71aAPy5CHWOcRenIMif3uj00z++zDnlKz8BkXI13jpGLw+7Lv6Ob17pk+sj+azDbr06Ozt+rg9yjGt9xEHl1zwca6fz+xZ10FdS/H0mHqgTTzxQ4vqIOrwnHrK2XIONrG+dN9+KE/HjOaKe8o4rZZ7zCMocdth/4if3RdVljF7GW88BdSq/xq9cjbeOa32YX8Xf8c1Lf9Ij+azDR+LB+D6abptfXTwWhU8FD0VNcJBE6nJdD3vluVvwepW8i4Cc81zn11zpCxnj5BpZxjUGbSmf9pEnp5RRLvmr2JDL+uCXWLGpvRpLF3/H106lO/mjOqRuXuPDenb8Lt8qbwxd3TKflKl2jEd57D4THrKe1oGcj+pgPaQ7edcCmdybK93Ozo6/solt/N6636t9YzZG6Cr+R8bDqj61DuK/42d98nonb21X9bTOrBvznZ0dv8NDxvfR19vmRzDeLXDnkaClWD7d5cFjArUQbGj+kR0d5ZNXbSEjD1/ahTLWhvxVnPBSjjExENvOPuBCVtvSFb+zhay5dj/hxLw1XcWP345vTJWu5OGt6kD91a/rtbKzi+eWfM0VO6u6rXjG18XD/DPiwXqCV77WY7yrv3WqdFW3j8BD+gXnrNHZ/V7xIH68IcBu/scdc39UPOzqk/W0Do+OB9frs+hh8/uswMbvvNw6GBgMDAYGA++FgWl+8xdefn/6ey+Qjd05wAYDg4F7w8A0v2l+0/wGA4OBwcDlMDDNb0B/OdDf2x3oxDNPRYOBj8fANL9pftP8BgODgcHA5TAwzW9AfznQz132x99lT82n5veGgWl+0/ym+Q0GBgODgcth4LD5rd4vyfdseNeGD3K7zr6ys5PPd17yvZaVTo2nyuf7QvleUMdf+UgeuRy9d9XleyYvfJ6VR8d65Lt9nZ2On/nW61Xduny7eODzPpb44br6yfGZOM1f2/eAh64OZ/LCxln5s35fYn+Fh1y77vqWfdTpnonzXvFgblmHM3mhf1YeHevxVudDxt/ZN9d7otvmR5E45AG3BeOQ4vrMTw51drpC4C//IgA+bTadTvKRzcOU6xwr2/Gd76iL3eXV8c/mdVbeeMmLA58PNjo7HV87Ha11YwOyXthDp87XeJS5dU1fGqfxfzYejKPW4WxeZ+XP+n2NfXLT363UfXSEn2rvpXFq517wYDzW4WxeZ+X1dysOb7Vv/J19+fdGt82vBkvR+OyaX96J5J1F2tKOPMYpW4sJWJmHn09uVQ97xMahj6z20c/xjq++Tw34QD7zYg6b2pHWvCq/ywuQKZu0k4ff1cGDJH9Samcn87DOxJP55toQX61ntY+uPzGzigf7NubM1+u6rtW+ce7qoC3XE1l5Nf4dX/3X4mFVhy6vR8cD9TxTt1qHxA+2nhUP7GFxJSahice695yD1rrdsi/O4LCzX8+HPA9X9om1w0Pm89HXNzc/g6cgXrtwHGTw6qGGrHMmpi5z8iq4bSLK8gdXPSxdkOqLMUDJhcCOMUoBSMcnHueNDYrtfBI1hpQx1syL+eTv8kpbXu/kjSHrkL6S39np+KlLLPii/shbRyn1ch7/yMNz3aHMp00Pt+4nrvCTm34X56oOxIC/e8HD2XUhdjGQ9Gwdzvrd2Xf/EY/rjbw4kLL2yJzZR9pb4Qdb+HkmPLC+q/NkV//Egdc7+dW+eEs8rOLv7Hd4MI/Pojc3P8AssGuwzlFwN4HUQ1AdZR2vKIu6+okfDwVsYB9/K/3qg/FKtvKxn5tc2wKpG8OvPpVN/lFe6kiP5LGddUAeHvqZS2en4x+tIz5qPY2FePyJmS4e7WsDWnFiDaBdnI+Ch64OR3llDV5Sh7N+u3hcL/c0NNer4iGxlzlgR3zCz/EKPzbDtPGSOlR9fGUcXBPLSi75L8lLm+kz82becVd/ca4t6ZE8Pt/rfMj6Zfzys1Z5bez3QG9qfiSUYK+Bm7y0zjs+sqMcdnLRfJQWBPnTG+okRT/jxS+8lOG68rtFqnnVcZdX5aO3y6vGdySfdfCuC/v109nZ8Ym9xuO41k2+FLu7eHzy83Dr6p72dnXLOqiTlHg+Cw+7OnT1F+eZA9dH8lmHl/jt7MM/g4duPaudOjbfjp/zj4oH1zHrab7QXV7mLz2S/yg8EMcObx0ezOOz6GHz4+4iD44aqEkjR5L5OJyyOzvM5dcatVgARbAgy/XOF/PI6Z8xC+RYWvmZizLQbL74JVZ0mevyWvF3eaU/r3fyR3VI3bzGNrHz2fG7dVR/VU/msLnSTV9VBluJMXJ7Njys1jRrYl3FlfJJd/L3hIeX7CPzrNiA/2x46M6T3fpan6Q7+ffEQxd/F1uHh5T/jOtt8yPJ/EdZ7ko8lKCM+VBog+cgk+/czg56Fdzw0o4HIzz9K0N8gKCLBzkOFHS5zs+K39lClnzw408UdXl1fGyv8sqY6vVKvqsDftWvG2NlB9lb+K6jtmvdBDdy+R9xlIfWeLJGuabIPhseyN1a1Dp09Ve+0pU8vKwh47oOt/pd2SeG5B/hAXn8rfbkah8d4ecZ8bCqQ62z517FQI5zXZSH99546OI3toq3Dg/KfwbdNr/PCGh8/nODnnpMPQYDg4HBwNtjYJpfeRockL09yKamU9PBwGDg3jAwzW+a3+9fyd0bOCeeOTAHA4OB98LANL9pftP8BgODgcHA5TAwzW9AfznQv9ed5Nidp5TBwONgYJrfNL9pfoOBwcBg4HIYmOY3oL8c6Ofu/HHuzmetZq3eCwPb5lff1XhNEPlel++jdPbyvR/eKary+c5Ivs/U8Ts/8nkvhvdWGK/em1FuZf9MXtoZOht6MDAYGAx8LgY+pPnRNPKvfvDSqs3mFgAgi46yXOf4iO98R21+NF18Ea8NOP1Uv6/Nq4tn+J+7Kab+U//BwPNj4Kbmx9+Iq3+9gyYBj0/+NQFAQ5NIns1FQKHLPPx8cqt6yNuEkE39HO/46hurzSyf2JgjJu1Ia7NDJv1ynXrmRVPUxtDn30SzxrPGg4HHw8Bh86NJ2TA47OtXkCx6bQK1idlEbEQ0U+zQJNTlWh42GeM7GxN2bGJSGk7Hx47zCU5s55OoMaSMsTLX2d/llbbm+vE2xqzZrNlg4LkxcNj8akNyXBtCPgFV0CD7DD9RRI40Q/M7yku5oc+9iWZ9Z30HA4+HgVPNj68K+QFSKE9lUBZ99eSUYGCeJzUbB3o8efEEhlz+9EbqeY0eTZenMXi1CSlX+fVpUrkabx1jJ/2pV+2jt8tLvaGPtzFmzWbNBgPPjYFTzY8nHRpANi+/HoQvWJCjOdrcahNCVnltIpNfRWoLiixy8hjTeBxLK9/YUhfZjB+/xJrxrBofetX+Li9jGvrcG2jWd9Z3MPCYGDhsfv67G0842RRoBPD4Dyt8pWnzAAi1+cHzKSntwMsmyRh7NiRk+dTmVZuQ4FvxO1vGj/+jnyjCBj5W9ld5Gc/Qx9wUs26zboOB58fAtvkNAJ4fALPGs8aDgcHAFTEwzW/+wsu/fH18xY0wOU8DGAxcCwPT/Kb5TfMbDAwGBgOXw8A0vwH95UA/d/jXusOf9Z71XmFgmt80v2l+g4HBwGDgchiY5jegvxzoV3eBw5ung8HAtTAwzW+a3zS/wcBgYDBwOQxM8xvQXw70c4d/rTv8We9Z7xUGpvlN85vmNxgYDAwGLoeBaX4D+suBfnUXOLx5OhgMXAsD0/ym+U3zGwwMBgYDl8PANL8B/eVAP3f417rDn/We9V5hYJrfNL9pfoOBwcBg4HIYmOY3oL8c6Fd3gcObp4PBwLUwMM1vmt80v8HAYGAwcDkMTPMb0F8O9HOHf607/FnvWe8VBqb5TfOb5jcYGAwMBi6HgWl+A/rLgX51Fzi8eToYDFwLA9P8pvlN8xsMDAYGA5fDwDS/Af3lQD93+Ne6w5/1nvVeYWCa3zS/aX6DgcHAYOByGJjmN6C/HOhXd4HDm6eDwcC1MDDNb5rfNL/BwGBgMHA5DEzzG9BfDvRzh3+tO/xZ71nvFQam+U3zm+Y3GBgMDAYuh4FpfgP6y4F+dRc4vHk6GAxcCwPT/Kb5TfMbDAwGBgOXw8A0vwH95UA/d/jXusOf9Z71XmFgmt80v2l+g4HBwGDgchiY5jegvxzoV3eBw5ung8HAtTAwzW+a3zS/wcBgYDBwOQxM8xvQXw70c4d/rTv8We9Z7xUGpvlN85vmNxgYDAwGLoeBaX4D+suBfnUXOLx5OhgMXAsD0/ym+U3zGwwMBgYDl8PANL8B/eVAP3f417rDn/We9V5h4K6b35/+9F9ff/nll69//OO/zwE9TXowMBgYDAwG3gwD2+b3hz/829effvrp62+//fb75/vvv//m/Mcff/xKc8qOupNPuXpNc6PJ4efXX3/9+uXLf36zW5tf2n9tU8R25sWYD3kZH3GRv82X3DM+5NIOssSYceoDOe1iR771dO5WSo2IBTv6Rbfj7+yeiaezv6rDzudursODOrlOK7913dSTrvJd2VF+6Dw5DAaeDwOHze9vf/uf35tRAqBrfp186tZrDqMzTeDocKv265gD/Oeff/69qTmfhyq89ENDI+fvvvvu91jlIWfDIw+uuzownw1W32co/oifPNDTZsff2VZ3J+NcZ7+rg3pnKTHx6fRcp7qO6hFn3rSknVW+nZ3Um+vnO/xmTa+9pnfR/GojtZHwVLN6wlsdbhxgPgmtdBLo9bBzzkPVcfpB54cffvjWcGhsxKic1MO3a35pT52k6B/FjnyNk/qh1/Hxi4xPm/rYxbOq585+zYNc4K38wl/Z10bFQ5UnD2Wg6mGTtTEv1gtZn9blQ9WB1ry0Y1OvdUvdub72ATrr/7jrf9j8uIN280PzUOPQyMXPpqVOlUl5bCknzcOsO6wqv47xmV8Fpk+v8YPP9IeecUhtFMTKfNfYzF2ZrJuxeKhyQGPfQ9mY8KE/eSuKHB99csjjo+N3h30XT1fPW+wbE3WoscOj3jv71l2qfD7pagdqbfGFLGPsU0fiha9cl6/zxJ52HJuHfh0PfdyDb9Zu1u6w+XVf33HQcBgkiDgsOvmUq9crW8jUQ1K9yicOD0tpHorqrSi+0cFGPdz0U/OyCaQ97PBJntfOGSeUOeitcWoLiv+//OWv33SxYZwdn3nmrA2UmLp45Kc8ce7sG5+5Ot75rfZtNsamDeKBtxrD1w41ySc/8kbH+pgXFD7U+q/sEM8qfuMYOgfoYOBxMfA0zS8Px7OA9BCEph0PTZ4Y/ErVg9ZDE1/o5Lj6165PHh7y2veQrnrdGHvEAUUGuzwZdXzmeRKCIn8Uj/PVf2ff+GsdOr+dff1hBxnHVb6Oq1ytK3F4UwY9qr/2u/j1N/RxD75Zu1m7p2h+HHb5tdhZYHN3T/Py0FPfQ5R5PpXPvLoeqMpI4WMbuRon/rJpInPL157GBcUPzYJPx+cQpz7MG4/yWTfjQS755tLZZ35Vh1v9al9am1/aIQZqhIzy0Iy5xklsu3xz7dJO+s26pd+5nkN0MPCYGDhsfhzOPu1AOUhYbA6T5HuIe4d9BhD1sPOAq/Y7PgcTB3fKG+cqjiprw4Gfhyr+PPSYS1vIcTjWJ0JtQY0nY0kdZbWLXOU5V2nmYO2R6fiuF/Hy9aB5dvGkHfIwh+TrN22Ys3l0ftNO2icHdJjPnLWDXf7HLWPXBv3899OKE+PEXsZqjJ0dY9F+1i1jm+vHPPxm3a69btvmN+C4Njhm/Wf9BwODgWfFwDS/+YsJ//SE9axAn7zmEB8MDAYSA9P8pvlN8xsMDAYGA5fDwDS/Af3lQJ93f3M9TwODgWtiYJrfNL9pfoOBwcBg4HIYmOY3oL8c6OdO/5p3+rPus+6JgWl+0/ym+Q0GBgODgcthYJrfgP5yoM+7v7mep4HBwDUxMM1vmt80v8HAYGAwcDkMTPMb0F8O9HOnf807/Vn3WffEwDS/aX7T/AYDg4HBwOUwMM1vQH850Ofd31zP08Bg4JoYmOY3zW+a32BgMDAYuBwGpvkN6C8H+rnTv+ad/qz7rHtiYJrfNL9pfoOBwcBg4HIYmOY3oL8c6PPub67naWAwcE0MTPOb5jfNbzAwGBgMXA4D0/wG9JcD/dzpX/NOf9Z91j0xMM1vmt80v8HAYGAwcDkMTPMb0F8O9Hn3N9fzNDAYuCYGpvlN85vmNxgYDAwGLoeBh2x+f/rTf3395Zdfvv7xj/9+uQWbu9Rr3qXOus+6DwbeFgPb5kdzocn89ttv3z4//fTT1z/84d/ahoM8Mm/RlHa2pvm9LQhmU009BwODgath4LD52cxoelx///33n978rrZIk+8cTIOBwcBg4G0xcHPzo/A0vh9//PFb8/vy5T+//vrrr9+eCP0K0qe1H3744RufeeTQ5WnNJ0jlOz4+lJXCswHDSxv4Zf5vf/ufrV/0MqYB09uCaeo59RwMDAYeBQM3Nz8bD03MJgclUXg+IdKUfDqUTwP8+eeff/869IiPr+ojC1rnGKdfmzR8/NqAaZDGlvbmejbsYGAwMBi4FgYOmx9NxacvGwfNS57U5icFSDYp5Gk8guuIz7wyUPWkda6O9Qd/mt+1AC1Ghs66DwYGAzsMHDY/mxkNxa8MbS7VcG1CPHHxVWSVV67jM68M9MhPldWuT6vZoOFVezOeTTIYGAwMBq6FgZubn42EJziaTT5RCZrahPz6sX7tCZ+m2vH92nPlA1/VTx3b/Gy+XcMjDhu6OUDP8lN3rq+1gWa9Z70HA4+JgZubHwuczYoG4xMVlIZBE8qvSWlwNh7mlUcGWWx2/Dpn00372PPJVIqezc+GrV/lM6Zpfo8JXNZ5PlODwcBg4KUY2Da/lxq9Fz2boPHQcLunSWWGzmYaDAwGBgPPj4Gnbn71SZQnPxriAPv5gT1rPGs8GBgM7DDw1M1vl/jMzcYYDAwGBgPXxcA0v/m3o3kSHgwMBgYDl8PANL8B/eVAP3f7173bn7WftRcD0/ym+U3zGwwMBgYDl8PANL8B/eVA753f0HkKGAxcFwMvbn78T8p8t+4lIKrv4eX7fy+xd0Yn3y9cvetXbeV7jfn+Iu8+ol/fIfR/mq5sp2+uq68cd/Y7furmdRd/x09dr+t6+b9n0wa8Wgv1h173oJm1n7W/Nwx8avPLYrxFM017u+t8WR85Du/826NVl0Pfl+xtADQtYs73BuEhp/0vX7780zx2lak+VuPOfsdf2YDXxd/xd3b4c3Xk18nAP6rnTnfm5pAcDAwGPgIDh80vnzB8MuOA9w5favPIp4DVU0+XVDa/vEbewxQ+flY/XdTZXfGxQy7YZR6bR09gaQdZPsblHHasETz8ZHOseanX0c5+x8c+togt46j2jf+IX+3QLI+a3y0y1e+M57AbDAwGPhoD2+ZXD2sOXb/yq3ME/pqDL+3lNXY97OFzqHMow4fadM8WjljJheaN/Vv11UPHJiKP3zHMr4KJN5sfNxI0j1ubd2e/4+PPunTNz1hrzis+ftKOMt7wiIWsnWuVvLmeg20wMBi4Nwxsmx8HmQed1AOvNigToxmdbSjopr28Zs4DtePr+1bqIc7hjs1sqEc2yM+Gi/5f/vLXbw2PGGt8jLP5WU+oeVnPld/OfsfH38pO8jL+W/gpU6+rLetqflV+xnMADgYGA/eCgcPm50FfA64HfZ1H70wTTHt5jV0OU+x1/Or7aIy9bDr+Gx32d7rEkHrYyRyrHexl8/PJjyaBn5pP9d3Z7/hn49dfzUv+ESUOdJVjnPWRP3QOvMHAYODeMLBtfvXwzuB3c8rxhMLHcaXY+POf//vbfDaOtM01T2Zv2fzSFzHdcmiTRz3YiQ0eFDvEmM0g82C+jo/8dvY7vvUl1vy6Ev4q/h3fuWpHHz7lub6OyUmZoXPgDQYGA/eKgW3zI2gOM7/yhHrYMce1czYnDkt53cGZxdBG/c8xyeerRe1nsyG2bDZp9+ha+8R6FCfN0tcZam5ZH5sjzSnrgI5zaevILzms7O/4zJFb2k6fGX/HJ/6VnZoXfpAzHnOUN3QOvsHAYOBeMXDY/O418IlrNtVgYDAwGBgMvBQD0/zmL7z8/vT2UhCN3hxAg4HBwKNhYJrfNL9pfoOBwcBg4HIYmOY3oL8c6B/tDnXinaeqwcDbY2Ca3zS/aX6DgcHAYOByGJjmN6C/HOjnLvrt76KnplPTR8PANL9pftP8BgODgcHA5TAwzW9AfznQP9od6sQ7T1WDgbfHwDS/aX7T/AYDg4HBwOUwMM1vQH850M9d9NvfRU9Np6aPhoFpftP8pvkNBgYDg4HLYWCa34D+cqB/tDvUiXeeqgYDb4+BaX7T/Kb5DQYGA4OBy2Fgmt+A/nKgn7vot7+LnppOTR8NA9P8pvlN8xsMDAYGA5fDwDS/Af3lQP9od6gT7zxVDQbeHgPT/Kb5TfMbDAwGBgOXw8A0vwH95UA/d9Fvfxc9NZ2aPhoGpvlN85vmNxgYDAwGLoeBaX4D+suB/tHuUCfeeaoaDLw9Bqb5TfOb5jcYGAwMBi6Hgcs0vz/+8d+//vTTT1+hcxd1fBf1pz/919cff/xxanVwKA6ujrH0iPtt8P+c65pYfPPmd/Yw+PLlP7/++uuvX3/77bdvzekPf/i3Nz9wsUnjA9AmzzU+/Qj2lEGWBlB52oBqWzs22F9++eV32+RHnvpQ/6hWzKcdbOOv+sT3999//y03fBgLlHEnj07Kco0//Jq7do15RY/yWOl0vLO2zuLHmromxFHrY527GOWrl/hY1V+f1lrflc/8rt76006VR1fbxriK52jd1ZXu/O72x63xEGPeaB1hoNYtMZv5HvGP6kBMyFiHoc/VED+1+QHin3/++VtjAFgALTfBW4Gt2uXAxC/+08dqI//www+/x5eyXHso1Jjr5sW/zTdlq1y1n/P6whbXf/vb//xLXF1enbz+ODBWBz7+c32UrzTjrHNnx2ds1fjqOlff1ufLly/bvFgjbFX9Oq7+tE9cKVtzQi/r3dU/bXC9W0fmiPu77777PfYuHu2+hV98Ykeb0jPxoP/SfYE/14F8aXhQ+dS54xMjcl0dKr7MbehzNMFt83Oz/eUvf/39CcFDAcB4B+rdJgCWJ01Qo1vvxnKea+axrU1BrB4xAWjtG08HSHNwQyDH9ar5Yava2zW/zk497JR7q02+ymmXVydvzbrNz/yqJupJzZdasS65dokT1xC9Ff8j8IPv3aEmvojP/FZ0VVPXGfupY33kV7ld/dPOyqfz2BSr3BghW/0oK30Lv6zZqlZn4kE/z4FaL+OV1nkxKlXOenV8YkR2V4eqq+2hj98AD5sfjUZgCjpBJXgSCMpAk881QMoDUGBhDz9sXii6bohqj1jQq7a7MTF6GKQMdjiozc34sK0OvldPWNoxRsfSGjM28VPlq5z60py3Rtjw2hsAqDVZ5bWTxxc2qTty+pbu5pQhTtbVGNShjnmTccTHf+asfSn2X4sfbOGjPtGaQ8WEvisVI7Vmq/rXnMSDNq1LteW8lHnWKdcdXeaxyTUyidlVPNp7C7/iWpvSM/EQR+bEda6zNqW5VsiK3VUs8Dq+tdvVYTdnPEMfsxEeNr/cSLnIAArgCSDn6kbMgxXPAAAgAElEQVSXv6JsEJ4qAS92qm71UedXNiuvO6SUSx/Ew4evjuD/v//3/32j+FU+KbLIJY9r5Nm8bmg3Jzmm/FE+1Q7+sF8PuOqfceZ1JL/b4Ef1M19ytE7m1eXb8dFTV1ur3ORRjzP4UQ/btfk5B6V2uU455/VRXbL++FvhQVu7+isD7dax8qmLWFE/45H3Wr/YwS52tAk9G88OD2nX64oRciWOVSw7vnHv6nC0zsY09PEa4Iubn4sNuLIJVmAqt6KALnUBWj4p8CRI8xWkZ2zr7xbwCn4o+dD8/vzn//72YYxf7SVVj82e/C5O7Svbya3m0fXrxHq4KF9pxtfdxKCTcisb1KDyc1zzsOZdvh0fO9VW+qnX2DmDH/XxsWt+u3powxzr2jsP1c5RTsrtbGGvW3diARvebEG94VrFo5/X+sU22MBO+jkbD/qJsaN61XnXojZ969Xx0SPuXR1qbJnnXD9ew8s1e3Xzw1iCa3ewIJdfZ1QQswHcBMhynfYAM5uauUxid+0GEOgrWexh103w17/+9Ztfmi9PFh4WVZfYyKfGU/NSjxiyuZuj85WmHXOnJrfkhC3zOpI371We2Kj5MbYR4yfj1C9xrvKlzh0f/9jqGhN+X4Mf67vzgQyx15zVlR7VFDlskG+tjzaku/orA+184ifj7fwZj+v8Wr/ERK2wk3GejQd97Giji7+bx99L8YbNXR1qLsYw9LEbH+v3ouYHOPNrnDyQMApgvAtNUMOvsgBPWQ4KNia8lGPsYVt9Y/MIiMhkHOkT3/riUMYP89hEx5g6HzWeo8Mua6PfnW3tIWPToEbwrRsUu11enbx+0VvlSW6rRqQf67SqgQdsl2/HJ6acy3WDX2tmLNTAHOClHGPWtcapTuXjx9rsKHIZX8aCbWPAfq6jNqtf19H5SqlpfYJ3bfGd8sTVxaMc89ZM3oqu/CqHH+L285J4iCPr2NVLn7VumUNi5xY+Nrs64GeFf+MY+tgNcNv8nmVxuw35LPm9Vx4cSKtGQBPmYIe+l+9HsDu4euzD7whjHf6P9Gb+MXBxieYHGI/uJjvA1rtM73Chebfa6R/x39v+kf9uvt6NK0fOPoXLuzJ9Ka66mn0WHj7L773VwXg6/Ds/9DEa3G6dLtP8dkWYuccH8qzhrOFgYDBwBgPT/A7+duOZYo7sbL7BwGBgMPAYGJjmN83v0v9uNwfVYxxUs06zTm+NgWl+0/ym+Q0GBgODgcth4C6aH/+47H8Lf013fys7r4lhdOcOdTAwGBgM3D8GPrT55f8oy/8x+FZN663srIBr7Bk3cvleUc6t+MSX/1uUa95FOsv3v9inLWwYt/N5Q5E+8v0ndW6laQf/jK2N8ViHymeeuvA/RjNefMOr8trZxea7mdh+TV47HzN3/wfZrNGs0VkMfGjz4+DjczbIz5b35fL6UzjyObSJkQOdQ7zj1zyUP8unudWXndMGNaYR8CE25G0uNsaXrEPNS5/40Bc8/eOLMXlmY1o1P/6azpEd/UmRz5eQ8Ytt54fOgTgYGAx0GDhsfh6W3tV7aHKgyfMJg8OIw4eDmbl6514PvbStDQNN+2kr+drv7BzFQy7Vr/5XtB62jNEnJuTJD5sdP20S86qB3cLvZLBvg6JRZ0NK38ToOib/6Frb5JeyjNNXlaM+2fxW/lfNr9pBL9cLu9nsuHY9xAZxph42mQNTaavjZ55zPQfpYOB5MHDY/DzQc9HroeTh5qHvwQpV30YpzUOrHp6M845eG7tDn/hWdjjgjMc4sYN8HoqZX3dd40IOWxzs5IV9dTu+8/XgPsNP2/i1scjHdq2F9lNG3hnKWuBzt36uu3ZXdUcGHHEDQKzSbKLVTl0vxnzMiQaqvvXNOuQ1sRlXx8euOQx9nkNv1nLWEgxsm189FASNB4vjlPPwYa7KcWDCU0+a+vAYr5ofcx6+t9rJeKof/d9Ka1weuhzAzNloO75+nK85nOVrj5rwIQ4o/C5XZdV9KcWODd/cGWcz1jZ5sg7kB8+mtfrpKGrY2dGeFDtnftKIOLQtJa6Ob7z6GzqH5mDgeTBwl83PJpAHVD2I8vAVkPXAr+P6xKrerRR72ZTroa79jo8+vuq8/s/yU6/WzNpBsYssNcsmpP5LqfHWOld7yrmGjIll9dNRebNS7dQxdjI/62+deRLkiRI5dPW7skM8lT/j5znoZi1nLSsGts3PA5U77FSshwzzHlpS5OthwwHjQZT26uGJfQ4tD8uUzWufIORVO3WMfB5yjPPffbTTUexl86t1IDfy7/jkY01rHc7yjVE9cpEHXeVObMinHNfo5r+R1flujJ7rLV3JWhd9O64/HVVjrrbqelV51tb1RZbrXLO8TtsdP2Xmeg7PwcBzYWDb/FhsDob8KopDBT7UpwsbCLJ5CHLIeRihw3Ue+tU29jygodqXX+XTb8bYyWtbENfDVH6l1a/2OcxXdUC/43vw2wj0dYZf48GXdqTIuBY0Y/+ThzW1dsjjG36ujXaSKldtpK+Ur3GiR6zGoz9wYazStOM1uhk3/IzJ9YWXcoxt7ilvPNVO8vU99LkOvlnPWc/D5vcZIOGAyqbJIZpPXLfG1B3Kt+pfRY5mRLOAXiXnyXMOv8HAtTFwl81v9cRAQzwL1ml+x+DmJsOnorP1Hfnj+k6NpkaDgfvEwF02vwHLfYJl1mXWZTAwGHgWDEzzmz9oe/qJ+lnAP3nMQT4YuC4GpvlN85vmNxgYDAwGLoeBaX4D+suBfu72r3u3P2s/ay8GpvlN85vmNxgYDAwGLoeBFzU/3lHjnSreh8r3qV77vyvrKw526NdQ3ykjVt8D29nr5Dv+ztZL5561DmfzOit/S73PrmMn3/FvieEWmdfYf5a63XqenM33rPx7rFe3vh3/lhjeSuYe6vNWuezsvKj5abCCs46Vu5W+ddGJJ98P5CXpfH+wxtXJd/yq/1bjZ63D2bzOyh/V/+w6dvId/8j/rfOvtf8sdaMOuz96YD3P5ntWXj8dPbtenXzH7/y+F/+z6/NeeVW7h80vn/LqX76o4MyxekdPW3mng32aE7r8eTP+aDE8/dbmlf5IrP4FkLqI2OZJFX6+26beTj6bpnbwXwvqeJWXcyu6kp86PA8e3A+JZ3AA5uSJyQ6HZ/H26Phxf/M3WqmR9aFuq/2y2lfyVvKPXh/OIbBijlB41A3KGVrrlrJ5/Rn12eE5Y3uv68PmRxFpDqsABKdJ5Bg9Pis9ecjnk5mb3oNC/bSbd4LKa88mZjyM+Wjv6CdvOvmOrx/9S7u8nK+0kzfuqcPfv2Z/1Dqw3sQOjnLtPXw5eJL/Vnh7Bvxws+q6Uxeuu/2SNczrTv7R60M9OAPBD42OPKXUTbwhs3sI+cz65Dp99PW2+VGUbDY1uDrPmKJztyFgq06Oa/Ny3B0K6GIXuXqddr1m8c/85E0n3/HJV19JzUNeHcuX1nnHU4e//5m7R69D3SeuOxQ8s19Yc/lvhbdnq5v7Qmq96li+tM47fvT6gBM+/DoK5/R//Mf//f3mIM/tHf6okfWo9fqo+uj3o+mbNz+K7hMWxdsl9JKic5eDfRaUg2PnA/t5sKDLk6ZNCzvcKSFHnJ18x9dOzRH5bP51fKv8DnxTh7//l+1HqMPR4QMesgm+Fd4eHT+1bu4jqfuojuVL67zjR6+PefDrKDRAfx+z1q2ee9ZFqp06/qj66Pej6bb5kTzNjLuLVWC1yDlGB11srHTh5aKg61ccu6Izx0HBQte4GGMDW9jPeBijZ1NClmtk/Oq1k+/45oWt+u8RNll0zUv5SqcO/2hkq7o9Oh6If7ePxAM44nOEN+Wlz4qfWgcP6S5f61FpJ//ouCIvcWWOfu0Jn/pRC8+6WhfH6iLPx/PqI+pjDJ9Bt82PgCwGT1B83JwUSB7UYkvRpblkM1oliAz6yHnnsis6Noghm4124Vd/bBjjJDZsw0s5xtpbyWO/4+ccMsZiXtjlq1fGzq2o8s9ah8xrlb+8Z63DLfuoYrLi1hqt6DPWjZrlecL+ch+t8l3VRd5K/tHPGTHFuUcu1Io85d87flybz6KHze+zAnskv9w5cXBBV3Hnpl3NPwvvqA7PkudRHlOHl/0Vkanbvm631qfeNBzh9arz79786l2IdyNQ7+Ieufjk4FNjlwfNb+rw9409ddgfcB2Gpm77uk19/lEfapFPzGDq2evT7Zsd/92b3875zP0DsFOLqcVgYDAwGPg4DEzzm7/pt/yqdjbhx23CqfXUejDw8RiY5jfNb5rfYGAwMBi4HAam+Q3oLwf6ucv++LvsqfnU/N4wMM1vmt80v8HAYGAwcDkMvLj58d9u+V+O/K9N35+js3f8e+v6E8/ciQ4GBgODgeti4EXNj/82619FATy8ZOnLlSv+AOy6AJu1n7UfDAwG7hED2+bH+2n5Dpt/QaW+tE3j4yXvjk+zvMfkJ6bZlIOBwcBg4JoY2DY/QGFDyxcnaYL5J3X8Q9Ydf5rfNcE1h8qs+2BgMHCvGDhsfgTOkx3/tkcjZEyTW/1UUMef5jcb4F43wMQ12BwMXBMDNzW/9/rpnwHdNUE36z7rPhgYDHw2Bg6bH09z9T+z5FegJMC8Mvk35eR/dpLjfzbaYGAwMBgYDCQGts2Prznrz6z4H2CY849U56sOHT+dzvWAcDAwGBgMDAY+EwPb5veZgY3v2RiDgcHAYGAw8F4YmOY3f9lhXkMZDAwGBgOXw8A0vwH95UD/XneSY3eeUgYDj4OBaX7T/Kb5DQYGA4OBy2Fgmt+A/nKgn7vzx7k7n7WatXovDEzzm+Y3zW8wMBgYDFwOA9P8Hhj09VWU97pDGrtz9z0YGAw8GwbetflxOPOi+9mi5buCvEuoDV6u571D3y+E8hI+9lMn300863sl/4c//Nu3n23C32ts1z8OsPK149V6Mn5NPPiypr6/ufM/c3MADgYGA8+CgbttfjY8Cl3/UgyHfr5Yz28I0gSgyNMQc/6tFuu1zeu1+rX5vTYv6vX3n6D68k8/UfVau6M/B+RgYDBw7xjYNj+ayN/+9j/fftYISkPxSYOD2CcweSSbP2bLvE0s+SmPDn6SVw95D2maB/K1+aHPx2LzpEa86Mm7leZTXj5Zor9qXl0dVnZS3/mjJp11s57qMs66UQPrvYq31tmaEFf+DqP8oXOADQYGA8+KgcPmx+HKAc/XYn/+83//3lQ4LGszqoeoTSwPfQq5al55iKtn0Vd2s2lw4KOjPHTFy/nuGr1spClX89g15ZWd1GeeT9qv16u8UyftoVvHtY7T/OYgqxib8WDiqhg4bH4cmBzyPElxuELroeqhW/mOoTyl5CebVy2+evKxn08mzKc+DQGe8tAVL+dX1+YBvWV+FSdxdXbg0+R9glv5SF61X8crP5l3Xqfdeo2drG+dn/EckIOBwcCzYeDDmh8H8a3Fq4f87gkLmzTofFrja8GXfO25aiYZc52vcea8TXCl74//EmfO1+tqv47Tn7rUCvvMUfMjH+ghO81vDjcxNHSwcAUMvKj51WZE4+GwTz4HKk85HMBHhyv63dee/vtWNjeaQD75pV8WzXg8+Bnf8r8ZV74SBOSRTW3nF7mMGTupX2NMP16n/ayn82lPHjlQ8+++++5f/OMz66wOdqb5zYEnHoYOFq6AgRc3Pw5Sv8bMA5WDFz48DmDGFJKGpTw0G0M9lDtZG8DKTsaTjTF9Y/doUasP7FYe/vWRfrMOVUc72TypTeqsYlvVs9rOeLCBr1Wzh5/+juys4hneHIyDgcHAM2Bg2/yeIUFy4AmKQx/6LDlNHnMADQYGA4OBl2Pg6ZsfT06rp6ABzctBM7Wb2g0GBgOPjoGnb36PvkAT/xwyg4HBwGDg7TEwze+B/7bnbIi33xBT06npYOAaGJjmN81v/h10MDAYGAxcDgPT/Ab0lwP93Nlf485+1nnWeYeBaX7T/Kb5DQYGA4OBy2Fg2/x86Zv3yPL9sF03vWWO9+18/6+T57UE/pdmfYdtJZ9xruTzfbb8n59n+F08K/4unpX8Kid4aect61/96Ucf9T3LrGm+15i1PJNX9T/juUMfDAwGPhoD2+ZnMDSJfDlb/kvpUfPDX/7FEQ7co2aZsSCLjjyuc3yW38XT8bUvNZ5b5dWToveW9deulNpgv/PhetHgWBfiQVf+S/PS/9A5+AYDg4GPxsCLm18+HfjEQPAc9Dwp8El+Phkwl82MwzdlPVQtBrLMw8+njaqHvE8xyKZ+js/yd/FkHsZpc6jxdHZS3tiSMl8bU9bT2iFHDPxdU2qctcLeql42tC9fvvyLD+P376Ri33VgDl/YfGlemeNcz+E3GBgMfCQGXtT8PDA9tDn8OJxpPBm8hyJy+SQnX9l6KDPmYyPzD0FjR12usyEw5mDOxooNxvnxwE6eOjv5VTzwVnxi6eLp5K3Fiq5yzdytvz7xgR0o+WqTsY0SnvVFv/pQx3o7VoeaMQcfu3ycy/VSb+gcbIOBwcA9YeBFza8eiHlwcghmY+HwrfJ1XAuCjb/85a/fmhuyaR9ZbObhW/WZz0PfGFZy2D/id/F0fOJNm8Zzq3zqcl3zJ+asMdc2Qyl6t9TZOlUf6NvMrJFj8kCeRsr1S/Oqec54DsfBwGDgozDwps2PJ0IORCgJePhKTaqO5UuZz+ZWnzR5svB3BdVJij5NgMMa/mubXxdPx6/Nz3hulc9cuK6NCTs2rZS9VQ4dG1ltoll347aOdey6vDSvjH2u59AbDAwGPhIDL2p+Hnoe8tz502yS7+HKIZ18dGiQeXijn1/H1UMcWeWR5RqZ/Co1i8Y8cvIYc0A7lt7K7+Lp+NqXGs+RPDHXf6fDRtVjvMq9ypEzvo2j1ln+yofr9/+3d8ZYruRGFt3N7EOzBM06/rgaU+O1zO/JUluyZGmcdtqSI6f31HPu13n9o0IAkmSxikniGjzIDAQiAoGX8RKsymTNW11HxtCXnWZa5Pisfqsfjy1wYkAMnAEDS/KjmEJKdXeQHRWFNPJKXBQ95BRxvrpMEYwc3fpTRyRhVJQprLEfn8iqL87x0+PEXk0uvtGtMo6vkY/iwcZIvopnpJ+40keLrNshHzUXyQ8tc0a/khB2kn/sjfIc36Ox8RWd2IjfvhaRj8ZVGx5b/MSAGHg0Bpbk9+jgdvPPzgpCod1t7s7XYigGxMBnYkDyO8mbHdihjb7y/Eww6MviIwbEwC4YkPxOQn67AM55WlzFgBg4AwYkP8nPr1jFgBgQA9thQPIT9NuB/gx3ncbg7kcMPBYDkp/kJ/mJATEgBrbDwEuRH//aX//93jurx95ZmX/zLwbEwFkxsCS//uzXeybBv+/z34w8C3bJc2C3+O7klwe18XkpKeIX3f6fl9h+lufYMu9L5/yedXWsxU0MiIFnxMCnkB+EUt9IwsPW9eHrUeJuIb+RHWSX2sobTPiFgxovZEK82Amx9AfpZ74fISc2bjD4EPMjYtCnBVEMiIEzY+Ai8uNdmux66m6o7oSOdhjoVrLjeDWG/uyy0mZ87YuNEBK6kdWkX0p+GYN+Jb/I00IuK/IjHt49yhtuEn/0Z3kbyRmDHfJOC5mN5pe4aCuBS34Wn4oNj8WDGPiOgUPyo9iGeCjGHKfAZldB4abQUvRHyWUcn5DUJT95cwlhdVKdjZnJR7EiQ39GfpkDvmfjo5O8xf8sbzM5OSP/+IIAf/jhT99IEP2R7/hFPz5pR7rKvl8E5sJciIH9MHBIfnX3ELJJG8AcFVqK+OonimKntjOb2MpuijYEw9jZmJm8+qvH6M/ID3/VZx2XY0iInVonqVneZnLmygc72COukd34RTexXTvn2LDdrwi45q75jhj4FPKjuENUtCS573RGiR8Vb8axEwqpzEiDsdXmyFbt78foj8gPYlntcGPnEeSXXV+9Mchx8p74bC12YkAM7I6Bm8ivkxc7jhUpdPK5ZPc0IqDqN8U+Ox0WsvvJ4s7k6e/tyPfRHKuNGfnV+NGPzZmcfj70X7LzqzFcO+c61mMLoxgQA6+OgZvIj6RQlLOzOPonDPSz+2PMiihrwquPkBwtNvgbWH4yiUJPDIknPmZyyKn6yfFMH/LBX7W/mvOM/PBT51RtjOTI+Eh+FqJg1FYsiIH7YGBJfib5Pkk2j+ZRDIgBMXAuDEh+vtZouAv2Qj3Xhep6uB5i4L4YkPwkP8lPDIgBMbAdBiQ/Qb8d6L2Dvu8dtPk0n8+IAclP8pP8xIAYEAPbYUDyE/Tbgf4Z71KN2d2VGLgvBiQ/yU/yEwNiQAxsh4El+eVBcp5vq8+kvfcOpL+ZZWSvPlt36XOBibfGOrMzktdnEfNMX3zX5/B45o/xxD2yc4t8lIPM5975r77ybGOdU/WL7+RgNq+VPmNq7jiu/j2+792s+TSfYuAyDCzJL0mkQFIAaSN7T3tEfviprxejYOYh95Vf9Igzsc7szOTdduKE4Ign8498Zudaeffbz7GXOfW+95xnXv0nnLpNck9uZ/Oa6SO/dO26Dc8vu4DNk3kSA7dh4Gbyq7ukutPKG1j6bqXukOirZEaBrDZCLllUdOlHXncodVwt5CGKlZ3qP/Yp7vHJbiYvkUYe//Sjj+9r7c/0q9/4ry39mVPkNZ/JHXrERtzkuOaKcTVfsUPLuHqzUfuyqyP2S+Kv+qO4q22Pb7tozZt5EwPvx8BN5BeiobixCBRFijOFry5KimUvrpFHtxdlzvmkkNafQMrYWlijR1+Vz+zM5JlP5lQJMj4gFfygM7Nzrbz6TU5qW+eEvJ8TT8gRIsR/4qtzQB6i7PY7+eED3XqjMpsXuiN9cAIRz8i4xuDx+y9mc2gOxcDlGLiJ/EJASXQtxhRICmY+FN+u389jJy02Vj+BhM1OQinyPZaRnSP7ITriJKacMy5FnuOZnWvl2MzcR22dE/3ElfymDfmljV7yMrIbGfY7+aWPFht8ZvPq8Uc/cSaPtKObpOrL48svXnNlrsTA7Ri4K/lxp89ugZZFodhRCNNmofp55Gnpr+TWd5rsBNlNoBdiCgnUdmZnJk8Rp78W6X6eeGZ2rpXHb+bfW/ovIbVL9Ub2V+SX+c/m1eOPPnlinVgjfPb4ehye334hmztzJwauw8BN5Jfin6LHjoDiXOUhJcivyhkDQSLPYjG+fh3Xi2R2Euijyzk6o4Jdx9ZjxsbOTI5O4qaAJ74aP7IU95mda+Xxw9z63+no6/Y4P5p74lzlOX5n9tKPDWLrcSSf0Utb9WucyVvIMPq211205st8iYH3Y2BJfhS7/N0nO6rsiCiGkVXiovAhp4jnJ4dYqMjR/fr165L80KdQxn58Iqu+OO9k0Qv0yM7MfuTxx3k+s/neYr/PKz5iixbZKv/Rja0ROaFD3mMfnZq/mf0uZ1xsVL/J00qfGwfWiDir79iz/Y4xc2EuxMDnYWBJfi7E5y0EuYYoIAhac/+5uTff5lsM7IUBya/s7h4JfnZofRf7yHj0vVchcL1d790wIPmdhPx2A57ztdiKATHwSAxIfpKfX7GKATEgBrbDgOQn6LcD/SPvNvXtbkcMnAMDkp/kJ/mJATEgBrbDgOQn6LcDvXfe57jzdh1ch0diYEl+eeD73s9o9efPRgmoz4flebKRXpUl3vo82czOTF6f56v/fTnTx/89/NZ55Dh2753/2E8bP8lbfZYvzxFmDWpfZNhZ5Sd+bC12YkAMnAUDS/JLkDzETKGjjew97RH54ae+GQRCqg9rz3yjR5yJdWZnJqeA4zfzTJwz/cTxXr+xM2vxnznNdN4j7/F3W8kDJMk6EE8Ik7FH+en2PLcAigEx8GgM3Ex+dQeQHQOToThmt1DldWdAfyUzCmjVTbFNctClH3ndjdVxIS5+my5EsbJT/cc+RTx+Mhd8zOygfy+/meuoxU/mlP6az+QOPeYy+xWFmq9q5183Gt/zlj5aSA57+KtyjrF3lJ8+xnOLnhgQA2fAwE3kl4JPsWUSkAPFmUJZJxXSQK/u5CKPbi/KKarZXXzmTxrFJwRNnMQ4iye66FWCmunP5Mlj8tHbapu+fo7/kCNEiJ/EXUkeeYiS/ln81X9fq/TVsbfOK7ZsLYZiQAx8NgZuIr9eEGsxphBm55cdXtfv533S2Bj9FFFIgoLeySlFvscysjOzn4JOP3ZCJDN95Pfwm3n1POS8zgkZ+as55jjklzZ6iS+2ajuLPzrJB/4iS4vd2J7l52hesWVr4RMDYuCzMXBX8mNHCGHkK7KQXNpMrp9Hnpb+Sm59p/lRP2mE37qDjd9RPCGGTkKJOy1zWtmpf2PM/Hs7Ir8QT9W9VI8xR/Gj0/MRX/iueRrl55J5xZ6thU8MiIHPxsBN5Jdinjt77vwphlWe4kqhrHLGQJC1eDO+fh3Xizi60c9uBZ36VWoSV8fWY/pjZyavcaKf4j/Tj0/aqlOPL/EbO8yt/k0z8m6P86O5M5b4kzfOe55jn7b7yPpho+phoxLfaGzyXMd5bHETA2LgTBhYkh8FEVKqu5sUPopg5JW4KHzIKeLP+JNGs3lld8PckoO6kJ08ZvozObbSR8v5Kv/RzRoQ9yiGW8kP+32e3BywrvFJm7Wv8fRxNU8eWwDFgBg4AwaW5HeGAHeKAXKBTGh3mrdztRiKATHw2RiQ/E7yhhd2aKOvPD8bEPqzCIkBMbADBiS/k5DfDmBzjhZVMSAGzoIByU/y8ytWMSAGxMB2GJD8BP12oD/LnadxuAsSA4/DgOQn+Ul+YkAMiIHtMCD5CfrtQO/d9uPuts29uT8LBu5Ofv1Zs3tPtD5rdunzZHlgO8+kEdPMzkxen/+r/5U508dHHcMxstXzcKM4750/7Vl8xIAYEAP/8etTkR/EWt9sAqHUh7hnC4oeRMkHGzM7MzkEV1/XBYHhd6ZPHKPYuh10+CTuHmfkthYrMSAGxMB9MXBIfnVnk50TRZ/i3386B1l9+wfHyK2hTZMAABIoSURBVNjRoMsbX9Kfwk9/FrWTQ+RpQzo5ZywxIa+7MWwn1tj87J86CtEmVtoeP7GRF/IzirOO9fi+wDef5lMM7I2BJflBcrWIU7xzDrlk10IbEutjAFi+zhvpxB56IcQZKNMfe2f9qaOQWr85SP6InzmSD+af+dA/yt8sH8r3vnhdf9dfDNyOgSX5UYyzU0sbskpL8tEbEVsWhuIOEUAKkaVlHOPR4Zjin77eQn6jnyjKGMYTJ/YYOyPlmZ2ZPOREP75C/DP95C1x0IbkEiNxMhfygh3kxCz53Q7mjhfPzaUYEAMzDBySX4pyNdALNMU9er2PcSvygxDZwdF+/fp1SnzY6aTCmPq3uDP81FH+JpmvM4l7lJPMJ8Sam4vahjzR9WMOxIAYEAP3w8CS/CjaKeY16b2Yd/LrY1bkRx/EyS5otDNc+WVcSDe7p0ti7vHHzkzeSZb5ZuebljirnZqD6DPXzOeSOKNrez/Am0tzKQbEABhYkh8KFO66G8lXf7XoV/JjDDoZAyGsyC/6+VqQ89WnxpMxyPIPLozlvP4DDLJObCM7GZvYYx95nVP3NdKHMImBvuiTB2wi6/HhYxRn5LZrXJgf8yMGxMA1GDgkv2uM3aoLQUJGt453nKAXA2JADIiBazDwUPKD9NgFsau6Jmh1BbkYEANiQAy8BwMPJb/3BO5YgS8GxIAYEAO3YkDyO/gb462JdZwXpRgQA2LgvBiQ/CQ/v3IWA2JADGyHAclP0G8Heu/Gz3s37tq4Np+FAcnvA8mvP4Jx66Ley86t/h1nQRIDYuDVMLAkP4pufR6N/8rMM2vPkoj+fN8q7mt0V3bSdy/SupedxGVrIRMDYmB3DBySH28qofjygHZeHwZJPEviriG0a3SfZf7GaZETA2JADPw7Bpbkx04Pwvvxx3+9eozzvKB69AaT9LNbRI+3mWSnCIHmTSiR5c0v7/2pIxY2zwzWN6pUWXwjmwEh5Mec0a+73tF8sVPnlTH1TS6ZK7rYxz+5iS52Z/Jr7cziwcdszsr//aIwJ+ZEDLw+Bg7Jj+IO+eXdmxBDSIIWkKAD0eVrUc4hjh9++NNvZMkOsuunuIeQql3sRR+7fC4FJP5HNo/G4w+yiq/Mq8ZV54u8vsMTnxmLXh/X7aPLmJk88V5jZxVP7Nm+/oXtGrvGYmCNgYvILyQAWUF+nGcnlTbkR0Fnp8HuhqJNW8mIBUkxxx79o50JpMA4dEIQq8XEb2KhZUz1hc/V+JFu4pzNl/4V2WR8fPfz5GUmT7y9v59XO6t4Ys92fVGYH/MjBl4fAxeRXwVCSCnkUvsgoHuRH4QI0dIe/dQROuzYQqIhA2LrRFHj7cddF3sj8s647FxDutwAIEt/t9fPE+dMfq2do3hiz/b1L2zX2DUWA2sMLMkvRFeTiIxiXXcY6Z+RHySCPuPQRS9EMdv5ZceXr1vjY9RW+yGAkPMs1pGdTkLEuZpvyLESXrXb7fXze5PfUTw1No/XF4b5MT9i4LUxcBP5UbT5ZMdDG+KjTRGm2IfckEc//wQCaaR/BDTGhCRH/VUGSWGfvzVCmCE/dKrvKq/jOSZeYkuc1fdoviHa6NMyptup8vTj74j8rrUzi2dGzn3+nr/2xe76ur5i4DsGluT36ERBVBDEo+OY+Q95pR+yGu2I0//R7dni+ej5av/7hWwuzIUYuA4DpyS/7OLYsZ15QUc7s0eS9dniOfPaGdt1hcJ8ma9Xw8Apye/Vkux8LBxiQAyIgXNhQPL7wHd7CvZzgd31cD3EgBgIBiQ/ye/UXy0HqLYWLTEgBu6JAclP8pP8xIAYEAPbYUDyE/Tbgf6ed4/acjciBp4TAxeRH/91WV/yXJ8nyzN7AGAmvyc4+I/G+qzcNbb7owDXjK3zq3POf1jW/KCLrzz/V58XrM8c1jE8G8l5ngn02bznvKCuxZT6rrMYeAwGDsmPIsyjB7xirD96MCOimfwei/we2+8lP+YPkYV8Iax/Pdf35c3zfckZseaGgLHRR04uEg/n9flAdFcP498jj9p4zAVn3s27GDgHBg7Jj4Kdd2zyNpa6I5kR0Uhed0J15xRyyC4pBJtn/ZBHv8qiH5KoO6foA7IqZ0z06cNX1V2BMsT15cuX38gv+p28Ik+LHz7o4Y9c0EcsyEOC0Ud+aVwZY3uOC8p1cB3EwHNg4JD8Upwhqf4qshHJsfBdHuJATj/FPl8FhgBWgKnk0G2P/MU+unVHVe0wjrldQjIhaMbP/Fc/dS51LPKcQ8TYSxzEkj5uNrK7rLY8fo6LynVyncTA+TGwJD+KcSU8CjSfLOyICOjr8k46tX9W5PGT3V3dsdWxiQP7VZdj7Ha//Tzjj1piyY5x5B/ZjPwYl7EhN+wxBuLlmA/vI03MIx9HMdp//ovNNXKNxMB5MLAkv/6VYUiFIs4izop0l3fSqf0j8sMvxECLnzq+jg2Qan9kfdzovOrOjkNYnVw5xy/jiGlEfpAe80u+0K/n2REjr/Yix+4sLuXnuYhcC9dCDDwfBpbkl11JFrYTTz+f6fVijt2QAC3nGUtb9UM+2T2NiGYk63bQgVBjh378XvK1Z41tNOeR/zrHjK/zQhYy7DaJscaZ8bbPd4G5Zq6ZGDgnBpbkBzFld5MFpCiHSOpuCN2ZHAKDDKJfCaePCRHiB33+/f+SnyjK7ik+uh188h+rlVTQqbFkjqu2ElWPHd/kAZLLYwuJJ35meajxYyO7xVUs9p3zonJdXBcxcH4MLMnPBTz/ArpGrpEYEANi4HoMSH6+4eXNV85eRNdfRObMnImB58OA5Cf5SX5iQAyIge0wIPkJ+u1A7136892lu2au2b0xIPlJfpKfGBADYmA7DEh+gn470N/7DlJ77krEwPNhQPKT/CQ/MSAGxMB2GFiSXx4wz7NqtHl+7pF3OvVZucQze06u6l7yE0Iz/UfOV9/Pd1fpmrlmYuDcGDgkv/puzzMsJuRUH1Qnpv7mFHT4dDkEmYf06+vIYnOmf4Z5G8O5LyTXx/URA8+FgZvIjx0hpMibV7IrhEBY/Pp2k7zVZCWnj7FVdwai+naVqhNSi4wYiC9vYKGfPogPX10fefzTdv3YtX0ucLterpcYEAMzDBySH6/aCsHRQgz5OjQ7sEpKec0ZDtHNedoqzyu8LiW/kBrERiz5GjN+Yo+48Md5Yk3s+Mcfn/TVnxCKrOrPkqfcC0sMiAEx8JwYOCS/0deeEMRIDglBGvUDCc3k2LkGOLFDyzjakByEF7/sSIkvRAbRZRcY4hv9hNBM/5oY1X3OC8F1c93EwF4YuDv5ZTdYgQRJjeRV55Lj7PxCmnXHWcfHXyVH+hnP3/qQ151dlYdMqz5+qn2P97pIXG/XWwy8HgbuSn6QRP1HkgBmJk8/u7H8zS2yUdvtdHJjTNUJqSGjL/qcQ3KRQ8x8Zvoh21FMyl7vonBNXVMx8PoYuCv5AZjsqvIVJMS2ktN3KfmhC0Hl54JCmPm6Ep/5OyC6sZ1Yoo+8xll3e8Qy0o8929e/KFxj11gMvD4GluQnAF4fAK6xaywGxMCOGJD8fLODf88UA2JADGyHAclP0G8H+h3vcp2zuzsx8BYDkp/kJ/mJATEgBrbDgOQn6LcDvXfAb++AzYf52BEDkp/kJ/mJATEgBrbDgOQn6LcD/Y53uc7Z3Z0YeIsByU/yk/zEgBgQA9thQPIT9NuB3jvgt3fA5sN87IgByU/yk/zEgBgQA9thQPIT9NuBfse7XOfs7k4MvMWA5Cf5SX5iQAyIge0wIPkJ+u1A7x3w2ztg82E+dsSA5Cf5SX5iQAyIge0wIPkJ+u1Av+NdrnN2dycG3mJA8pP8JD8xIAbEwHYYkPwE/Xag9w747R2w+TAfO2JA8pP8JD8xIAbEwHYYkPwE/Xag3/Eu1zm7uxMDbzEg+Ul+kp8YEANiYDsMSH6CfjvQewf89g7YfJiPHTEg+Ul+kp8YEANiYDsMSH6CfjvQ73iX65zd3YmBtxiQ/CQ/yU8MiAExsB0GJD9Bvx3ovQN+ewdsPszHjhiQ/CQ/yU8MiAExsB0GDsnvz3/+86+//PLLt88//vGPX3//+//6liTl5kE8eF1cWwd23GE453PurA/Jz4U758K5Lq6LGBADYuB2DEh+ft2x3dcdFozbC4a5M3evggHJT/KT/MSAGBAD22FA8hP024H+Ve5cnYe7MDFwOwYkP8lP8hMDYkAMbIcByU/Qbwd675Zvv1s2d+buVTAg+Ul+kp8YEANiYDsMSH6CfjvQv8qdq/NwFyYGbseA5Cf5SX5iQAyIge0wIPl9IOj/+Mf//bW+BeXoLu2j9Wf+r/U7szOTP7v92byU337Xbe7M3aMx8FDy+9vf/vYrhbEmYSRLP7q8ai1jeNXaTz/99Nsr16I3axmH/Vn/Sh7f+Mfn7373n4d2GPNe8lvN8VL7xErMxD6K51I7q/zcI86V/VXfPeJf2bfPQi0GXg8DpyO/v/71r79++fLfQ2JJkUMHMK4K7gisjL+F/CAPxuEvRMI7DUc+7i27do4r//e01f18pO3uy/PXK0SuqWv62Rh4KPlBIJ1EjsgPEopOLbgQ2+gF3BDpP//5z9/6Qn5VPtoNrRZiFHfVD0H2nRbx4v/vf/+/b/EQF3HM9NHNnNIim+kTQx3T51Xzhe7MDnqMjU/arNPIfpVlzFGco/Wa5afmth6v4sd/z3MdW49nfrGPjb/85cffcpE8jOLHZpWTC9Z4ZWeGw2onOOn2q7zOx2OJRAwcY+AU5EcBoMhQhGg5Hy0eBYGiRksRQp+v89D/+eefv50zjv58HYo89jI+42irPkVq5LfKUnCxVeWj4+6Hc0glBZSW+WRs10c+kq3000eb+UY2szWTM46+EFnspK32j2xkPRi7Wq9VfuK3t90359fY6frMi3iz1lmj+FnFX/HGONZ4Zif2aJlT9Tu6DrAzkvd8eH5c+MyROTokPy7e3M1TUHKhXisfgQ0bfL5+/fqtwP7hD//zrcXHyH6KLUWAwvLly5dvRSry+EhR6fKc02ZOaVPsYmPW4jfFcKYTeeJIzvp54pnpI+9jojvrq3ljbjXWma2ZPHmmP35n9mc2RnGu5l1Jsuslht523/38yE7Xz/mMbLq96NPOyG9EWtgJ/tIGh6wbMnTqfGfyqvMRx3Xd710HPiJebUpuRxg4JL8jA+/pTxGB/H744U/fPlzcFJGR3ejTx8XIOIpFldOXYtTlOU878rGSEVuK00ovfYkj8+nnPY7ej52RbGafHQmFqe90Z/pHcnJMjNFb2b8mztW8z0B+2dldS37oE38nskvtJM+1nZHdTF7HeiwBiIE5Bh5OfhSLH3/88VuR5295/H2FYjFatFo0KbYhoxQrZIyjaGO3yumDGBjDcb1DH/nqsticxdb1OcdPLeb9vM5npB/ZLNZur843hZj5Jrauv5JjK/9YFL2VfWzfEie2k9seX89P4uhtH9fPj+x0feIhbzPSqnmo8SNnh9cxMrOD31nO6hyJh0+VxW+Vczz6O+C18u7H83kBNTfPm5uHkh/FgouV4gSIQma9eARgvYihn69guMBzxx1ZbCJHlq9XkWMr+rS1iMRf2sRZ9auP6KWlqNFf9UOCadHNfGb6yUOdG3Ne6dOPX/LKjcRKf2WHOHv8xDOyn3lfE2fVTS6JZ5Sf2O/tLP732iEG5spn9HUlcYziR3+Wt5mdEQ77vGp+Kq4iT16ISfJ73mKcdbT9nDV8KPm5yJ+zyOZ5nedOlrfmKzczGY/dS3Z20bddr5P5MT/3xIDk94FveLnnQmnr4y78e5Ff37Gxc4YQXbuPWztza25vxYDkJ/lZnMWAGBAD22FA8hP024H+1jtFx7nLEAOvgwHJT/KT/MSAGBAD22FA8hP024Heu/fXuXt3LV3LWzEg+Ul+kp8YEANiYDsMSH6CfjvQ33qn6Dh3GWLgdTAg+Ul+kp8YEANiYDsMSH6CfjvQe/f+OnfvrqVreSsGJD/JT/ITA2JADGyHgUPyG73DEKZV/v0l2nkHZn3XovkxP+Lhl2/vh615uPUu3XHu8O6NgUPyu7dD7QliMSAGxIAYeDQGJD+/7tju645HX3T6t/CLgcdjQPKT/CQ/MSAGxMB2GJD8BP12oPeu+/F33a6Ba/BoDEh+kp/kJwbEgBjYDgOSn6DfDvSPvuPUv7seMfB4DEh+kp/kJwbEgBjYDgP/D5pwNDPg2/OmAAAAAElFTkSuQmCC;" parent="1" vertex="1">
                    <mxGeometry x="160" y="120" width="447" height="604" as="geometry"/>
                </mxCell>
                <mxCell id="3" value="Error in V0.0.1" style="text;html=1;align=center;verticalAlign=middle;resizable=0;points=[];autosize=1;strokeColor=none;fillColor=none;" parent="1" vertex="1">
                    <mxGeometry x="160" y="100" width="90" height="20" as="geometry"/>
                </mxCell>
                <mxCell id="4" value="Error in V0.0.1" style="text;html=1;align=center;verticalAlign=middle;resizable=0;points=[];autosize=1;strokeColor=none;fillColor=none;" parent="1" vertex="1">
                    <mxGeometry x="685" y="90" width="90" height="20" as="geometry"/>
                </mxCell>
                <mxCell id="5" value="" style="shape=image;verticalLabelPosition=bottom;labelBackgroundColor=#ffffff;verticalAlign=top;aspect=fixed;imageAspect=0;image=data:image/png,iVBORw0KGgoAAAANSUhEUgAAAa0AAAFECAYAAACUHWF9AAAgAElEQVR4Ae2dvbbkSm5m9STyNO/R8wgzT3Dbr3ElU+N1m+XJumW1JUvjyJElR47e6c7a1WtXo3Aj+Jc8eZLMzzgLJAIBIIAvADJPkvl3f//3f/9b//uHf/gfv+UvMQgGgoFgIBh4NQz8XW9YnL+ak/EnGycYCAaCgWAADKRp5a4yFynBQDAQDFwGA2laAetlwJor7VxpBwPBwOGm9c///H9/++///u8ff5w/G1DY/Nd//dfT7aL33//933/7wx/+5+m6nx2j2MsmDwaCgTth4FDT+vLl//z2H//xH7/9r//1vz+1qKdpZTPeaTNmLcFzMLCOgdObFncn3KV4F/Yv//Iv3xsbd0Ty/vM///N7w6Ppwf+3f/t/38f+67/+6zca4lLiGEdOXd5p0cDkbdFf9SivXcbwKXda6wAyZqGJVTAQDDwDA4eaFo7ZhGwaOsu5jUpep94h0bRoGMpDu746F3nu8Gxs6uG83vnBp3HO9MN3HP3K26TStLL5Ku5yHDwEA6+DgcNNyyTavCj8vRkoA6UheScEZV6XtwnVefW4j3suVbbq7c0Ju8hXXzhGrjatv/zlL4t3fNoKfR0wJxfJRTBwfww83LQACU3A5iCt4OHOhTuqfodUm4t6lu60enPyXKrNqrf6o5xU+dD7Az05To6DgXtg4JSmxV2UdypQP+4TJPXjO//ndeROq+qhMdEI0VP52NSf2rzg26zg148Z9VOKXP8/l2Oh9wB+8pg8BgPXxMChpkVRrx+v1QJvM3HcBkZzgceXKH799duhjwcBmXqw+fXr1+/n8LGjTf2ZNS3k+xr00zF1cJ6/xCAYCAaCgdfAwKGmleS9RvKSh+QhGAgG3g0DaVq5k8qdZDAQDAQDl8FAmlbAehmwvtsVZdabu6hg4PcYSNNK00rTCgaCgWDgMhhI0wpYLwPWXHX+/qozMUlM3g0DaVppWmlawUAwEAxcBgMv3bTyvNTyVWTisxyfd7sCzXqDh3fAwKGm1Z/F8sHiswPWi3J9Fqs/k3Wm7bq+LS/xPWqb9fHc2SPz+/Nk/dk0dI94R23WeTP/Z/w69xWPK744Xotbl3dNIz4xEbOz/dLj5oP4PcfaqbTa3IrZPfqrrRynOX4mBg43LTYem1rgs2metRA292zjn+EDa3nGenqROsP3UaEd8c6wNfN/xj/D5kfpIN/9AmIpbiN5fBvx2SPoXtsvPW7oAufutdna+xthup7ZvK36Z/PDT/P6DAw83LRw2o3aN7mbZ8Z3ngtXzkbIlenoKhO9vWn5pow+B1mvcKFbrkLRxTz9glY9+qS/UGUsTtDRT65QYPBBn5CrdurxyA94s/gwpl4pPP3kJcB7YqAO14tvM/9HfPwkBrwBRV3kvOup+muca65mfHShs+qoMezH1U/nGB/z6Bz5PW7yZ/Kdrz4p/o7iQIzIF3L4+ddXjX35qWnN/GctYhYd6q9YQb/8mX59DE1DelUMPNy03BRsmL6Z4dWi6WZe4xusrk8+83vTcgxa9dd3DNbNXOU9ZkNbXKXMcYNX/736lXa7FBELBNQ4VH/0U/udMg8Z7FP8sQ/lHNlRfGY8/MEH5ulPtzc71090j/yf8cWGdqtvPW7ms65Pf2x+rlu+lPXYgOSNaLXPOOvCrvHFNnm3WSJf87gmP9NTfTEm6FqLmzLGauY/OtWL/8zTJrEnPp5Dle36q0yO07ReFQOHmxab2cLuphhtKou1G49AsFksZFA3WT1GrusziMhb5OThg/5AtVuLLDx9dd6Idj+qv8hXv0brquPIO1+qzX4uX4qv/PGORez88ssff6wLmW5nK2/NLnpG8ezzPJfqt+cUx1ETYrzmimPzSew5R0Z90Bm/yqwdz+zK1ybUvErRbbxn8jM+cdA31sEf58h7XM+JvXxtQtVfY2fcoMxDzkZb52ofOtNfZXKcpvWqGDjctNzMbKR6ZSqfBbsp++aRjwxXp3z8ggwbtW7wPs8gMt/Nqg42qlfi6veK0k1e56hrRPEDHY6pz/Pq1571dj39XP1Sx799+/a9cfmCYGNU/XDOFp56ndMpcRzFs8/zXKoez/Fz1rQsys7plPGzm5d+dVveIY3iWvOrnLTLz/jkBJusqWKw+8M5OpERs5V2edcBv+rFDy7WRlhY06/O0DStV8XAw03LTcCGZJN4Z8MxhW+JT1CYjwwFmSvAGqjRpmN8aZNWf3oRqbqXjvEHG8rUIgAPPy1ms/U6jrzFpuqp8dFOp8ijB3vOpQmwRmRH8YGnT+rrcvrjeKfaYl6Pp8WQMfNb5SufuaOmhUz3sfvAOevumBjxkcEX9I70yJvZ7XzxBb/mETsdz+iu8nVd8okDc9Fl7pg3i5v+QqsP3U/lqh541a74UbbTqr+P5TyN6xUx8HDTYlF107A5uTrk7sufIEFmxnfMuzXO2UgUoXqVWTd83ZTI80cx6XYtuDM9zu20Ny3G9R9dtUDKr+vthQB/0Vn9RId3Tt2+58YBG67ForkUH33CV+Vr8a3+aKtT5vV4IiO/+z/i4/OoaaEHH2pe8Nn1yjfOM74+M1dZeTM6sossGCaH2FZXt1sxOJKf6amyfW2juFXf8aHnTh1Q1o58zbn+w+9rUF4bXb/80DSsV8XAoab1qovpfvXizAatV8JdPufZqMFAMBAMvDYGbt20+lUmV6Y0soDytUGZ/CQ/wUAwMMPArZvWbNHhZ0MEA8FAMHBNDKRp5UWZufMMBoKBYOAyGEjTClgvA9ZcGV/zyjh5S97OxECaVppWmlYwEAwEA5fBQJpWwHoZsJ55tRZdufoPBq6JgcNNy2/m1eerZiC4y7MgrplvIW5Z9ywea/z+Vf01+Yxfc/Mlb8lbMLAfA4ealg8Tf/nyZdNzT3dpWjyY2R/O/AjQpWntB/JH5CE6k4dg4PUwcKhpmUia0ZaHdW1a/Sce0FPfFlCf5PdNAdzVVL5vhoDPn02EQi9Peeyih7cyMFbvjqp85bu2EUUX8+pY1VPt9rcYMHfJnxoHfEW+2snx622e5CQ5CQaej4GnNS0Kem0wFnUpyacBcE5jqmCAbxGHqkcZ7/xoClUP59Uu85i/9HohdVbKPBuiFD1Ldvu6kJ/5A782/7re6keOn79BEvPEPBh4LQw8rWnVIk6R5rzepdgMbFq9UVj0qx7B1Iu8+itFtsqhD5vw1LNGmVPlqz7mVnvVT+XqePXHce33c/mhr7V5ko/kIxh4PgY+pWlxh8JHdrPizDh3SFBAoVwv+gLGcc+r3Kh5KAfd07zStJ4P0JqrHCf+wUAw8ClNy4/paC71YzEBWT92839YNAyPma8stMpzzrjNSgq/Nzd1IN91OlZpb1pLdl0Xa6QBM7c20+pP1VPltY1vW//v5pzQbO5gIBi4IwYONS0Lqx/pQWkO/X9RBqzLV1kaSdVj86DIw6dY15846bqUh6qHJoEcf6Om1XUor78z2psWciO7lV/9n/mDvOvFl/6TJdhI00oBmuEy/GDjnTBwqGm9U4Cy1hSEYCAYCAZeBwNpWnkjxk8ftWZzvs7mTC6Si2Dg9xhI00rTStMKBoKBYOAyGEjTClgvA9Zcdf7+qjMxSUzeDQNpWmlaaVrBQDAQDFwGA2laAetlwPpuV5RZb+6igoHfY+ClmxZfh9/6dfSl5J6lZ8lGxn4PrsQkMQkGgoGzMXCoafXnnNaeIerPJ7kIHxbm+apRc9rabGb6tbNVj/Jb6ZrdrXqeLUc8eC5sye5ZaztDT/e368xzbCmMS1jO2L3wcbhp1Yd2KRr1geEOkl5k9o53+X6+pr/Ln3X+WXYf9b83gZG+s9Z2hp7ub9XJhQ8NmAeyweFoLeHdq2gln++dz1OaVn0NUW1mFhuLzOinSQCg41DOl+7A0OmbL7zDc37XP9ODPIVu7SdLfCMH6xttlJldZJmDf/0u0jdfdH71lTELcF2vd6NL/o/87P6g3zutkT+Vh+ya/Mzmkp7RumZ6xJHjxh1KnMk7lHwSR+VC37u4Jf/3zP8pTYsCS4GqxQTAWGzgU3BrIa53Zn2eYOt8ChKFqTcR9eMDc/Vnpkd5/VEevu8MZC76lFFXpV0P67VpS5GX3wuq8ZnZYp34g52qp9vV/+pbPe7rqnarXOUzp66hynlc5eV1OtIzW1ePj7qwY/OU2sBZO+MzbKgj9J4FLHl9v7webloUDQuIDagXKIta56+dC8QuB9+rd3TP5LQ7G+96lYe/t2nVwq5e9BkbqTGiyMqDjpq9fuuX5+qvlLEup7y0j9fzkT/M6zbUNZN3vNORnmp/yZa6ZvK9UeEbf84Lfb+ClpzfP+eHm1Yt1gKlFyiLTef3j3L6+EyffGhtXn2+dpXv4/1ceYog67Kp2GjU02nX47rU1+UZp9lDGVOu63Ge455XuRr/Lqe8tI97PvOHedWWepbklel0pEf7yo5kHIPO5PHHj2C35qzqzfH9C1xyfL8cn960vFOhEFGgR3cSXA3DF1CzojXjO88r6y43K3LIMXcmTxHc83+Rrsd1wTcO+gpFvx/32SCJg8f9LqHKM59xm5UUfl9vtdnt4pt5qfr1wbyM1rAk3216vqYHOdeFD86rtK8PnayfeTVm8qHq9f+eVR9z9vDr3Bzfrwgmp9fK6alNi+RTELjqpSj4kyIUkdnHiZXPPIvxFj4y6O7FyiLX7Vb92sFn5S3cXrUrPyumXT86lUVn1WNxpSnAr/HBh65LeePJnLX1Lm0+7aKj/vSJ/O5PzSW2bWZL8jP7dQ3qqTzXNZtvfhwnVuaKMflQ9MvDxp7mNJOv+nN8rQKXfN0vX4ea1l2BMCqOozumu64/67rfBk9Ok9O7YSBNq7zGqd/tcIfhVfvdEp/1pJgFA8HAFTGQplWa1hUTGJ9TeIKBYOCdMJCmlab10/+E3gn8WWuKfTBwPQykaaVppWkFA8FAMHAZDKRpBayXAWuuiq93VZycJWdnYyBNK00rTSsYCAaCgctg4HDT4lt1fLvOv8/4ll3/ivrZHT36cpUYDAQDwcBrYeBQ06pvRvjMhKZpvRaYPhMLsR0sBAPvgYHTm5ZvKvAOjLcMACbfpADfNyDwXBT80U+EzABIw+QtB+r3DQv1zm+L/qpH+ZnN8N9jMyTPyXMw8PoYONS0SKxNyKZhsjm3Ucnr1DskH+ZVHtr11bnI1zdUqKff+cH3NU00pK4fPY6jX3lfwVRt5vj1QZwcJUfBwPtg4HDTEiQ2Lwp/bwbKQGkc3h1BmdflbUJ1Xj3u455Lla16e3PCLvLVF47rewPVE/o+GyG5Tq6DgWtg4OGmRaJpAjYHaQUAd0Lc8UCV/+ymhf3qY46vAdjkKXkKBt4bA6c0Le6ivFOB+nGc4Kof3/k/ryNNq+rhbopGiJ7Kx6b+1Dsu+N6Rwa8fM+pn6HtvhuQ/+Q8GXh8Dh5pW/3itfpHBZuLHbzYwmgu8+hMYs6ayBBz1YLP+xAZ2tKk/S/r7GvRzyXbGXh/QyVFyFAzcGwOHmlZAcW9QJL/JbzAQDLwqBtK08iR8/rcXDAQDwcBlMJCmFbBeBqyveuUXv3JXEgw8DwNpWmlaaVrBQDAQDFwGA2laAetlwJqr2eddzSbWifWrYiBNK00rTSsYCAaCgctgIE1rJ1j71+hf9Wokfn3slbLP/CXOHxvnxDfx7Rg41LTqM1H92ahu4MzzsxrGUT0+GE3BOnNd6Drq09l+rOn7SD+NL5jyWTv8mfFnvu6Vn+mBv7RenhnM830pqkv4ydj5+DjUtEwExds3Ycj7SLpUQPbYPaqHAkWh2mNrq+xRn7bqP0vuGX7ObMz4s7XtlR/pWdLBWN6scn5RGuUhvMRZDJzatLjC5WdGfv3124+3U3gl6psslq6iGVOeVzP5EyRedVtA/vKXv/x4uwZyLGaPfvVAvSpfa76uTXvYxFfWi59QdOhrfeOGPOZUPvPQV333znWpOerLKM6juGHXdap/Lc7Y7z8Zs9fPJbtVV40Pc2p+OPdvxne805H8zO7RvBBHY6l9zvuaHAv9Wz4Ti8TiCAZOb1oUbgoDzoyKBnwKhDLQvun7POTRC59ioLx8CnJd/B792NeXqqMf0wwo4tWWxQl7NKA//enP32WQ5Qocf12vTREdjHf9fc19vJ7bgPS7zjVO3e4jcWadI1vVp9nxyG6XrflirK6nys74VaYer8lrl3gezQs6zK22xQX25YWmQAcD52Dg9KY12/xsZK/yoRSzWVGhEFRZji3GUgBQ5+/Rzzyan35sAdOsaWHXMfSyfouhequfrBu7yDje11L5o+NZkd0aN3Vula/rqWtRz4wuyY7ypZ7ZvBnfeZ2O5Gd2j+bF3NeLme5Hzs8pVolj4ggGntK02Ng0CShGLYKjolLHO0i7vAVjr3718DFjv0ruNj3XVi1OFMC9TUt9vUjqE1SZGV1qWujt82a6zcOafJWb6eo6OJ/JzvKljtm8Gd95nXb5NbvM35uXGptuP+cpssHA+Rh4WtPy4zIKLo2C4uAxhb8ml2Iz+gd3L0LMQw/FaK9+79jQsaVxjRoFc/mzoeGfd5r6w7pmNpyPzGzNNS4ej3xZ0vFonGth3usnsWWd+g6d5UuZnuc1vuOddj1rdp2/Jy9Vts7P/7TOL1bGN/S9Y/uUpgXIvILlfz98gYBz+BQWP6rjYzMLHIWSc//gd9nabPbo78WMuVuKDD7oN75bsEZNizF9V3f3X76bsM6pdhyXzpoW46O4we+2sTWT7/GpTYs5W/1csjvKV/eR+HlxUTEinzhgo//N9CC/xe7WvGBndHFFfLqO7mPOf5+3xCQx2YKBh5rWFgN3kvGOhSJ+p3VlLceKBQ3Q5p8YHoth4pa47cVAmtbgSn0piP0uZEk2Y/fdkP3uM7m+b66T29fKbZrWzqYVAL8WgJOP5CMYeC8MpGmlaeWjzmAgGAgGLoOBNK2A9TJgzRX1e11RJ9/J9wgDaVppWmlawUAwEAxcBgMv0bT4p/YVviJ8FT9HVydLvKuv6+r+L+UmY7nbCAZ+xsBTmpZfFfe5JWj9qnAvOlX+0WaGHZ71+cd//KfvjZFnqo6CoPt5VM+eeWf4vxbPj16X9msusSke6vN2e2Kj7Ef7r529FL/Wnrdj7cShxmavncj/XNQSj3vH42lNyzdF7AHUGV8vp+hTOGhWFIZHmtYe38+SPdP/M+J5ZF02Xh8UJgf9jSHIHNF99hwa7BGsjvxYa1rO2ZOXPBt274IsJkLnef7UpuUV+OxKc7SZKXi8VWM2pyfbol91waMwoQdKMfVKl6LgHYC8mZ/oRB4dzEHfUlOcyeujvtei7lj1X7m9tOs4sq698XctX758+fF2i17MkSGG+LNnTUf8X9JPfMg5MUduCSesoeOEOTU+jIOPHve+/j7e9YhD+K5ZH+HlLzF4Jww8rWn5MYgbnY1roEeblrHO7+foQO/eYseGpxAwn0ZTf1JEn6BrxQV/epGjSFUd9bjL639fF/59RFHqdvSt87uf+DIrvkvxt8CyzmrDdZs3dC/p0c8ZrbqRmfk/m1/n4JtySzipd4quB7v1tU7wZ3GrOBn5Tzzg44v6jRc85lcd+hyaBnZ3DDytaXElzVXoKKB90yrT+Wxem570SLGzKXiFjx39Y0zd0FoYuj/93CKl/512+XqOHeZTmDhmrM9/9Lzaq7o6v5+7rr3xt9lhq+tkjcaZd1EeudNyDV13P9d/5TsFB1x8dHzOcNL1aa/zPXccim35+jEaNzbSEc6J4Yiv3tA0sDti4HJNi436aCJmxagXr7XiMio2S/51eex5xc4xP5UC/fr168NrHMWo21em8/u5cZA6b4l6l2XRrRQ9de4evXWex93ffr5FP3O8+1bvDCddn/Y633PHoeiWr521ceUqBWdLWKuyOU7zuhMGLtW02Nz145ejiZgVo9pELLq1MPTi0s97McJO/T9Xl2dc/d5hcdeBH1vW1vWvzen2le/8fu664B+Nf9dZbXedj66r29J/bc4o8/rHvfhCPrgTZNw7ci820IUMdzwVP+oivxy7xsrXD3jMh8Kr8spIxSU25YWmKb0TBj61abmB61W4m5fi0flsWApQ5R/ZvMzhb1SMKDLop9n4EypLfuovoOnFERu9adV1MZc1CTjkO8+xETUW0NG4vCX/qz+s2/VI0VHXpU1zgM/aWaL4oE4Lr3HuTVobj6xLW93/JR8ZwzcbE2vjb4QT+MaAGLI+5osfeNwxe1Gi/BZcLeEcfehaW0fG08juioGnNK27Bm/vumrhHs2lIK0V6jqPYkpx7EW/ylzx+K7rumIu4nOa36thIE3riV8ZnjUtr873XEEzp97FvRqwjvpz13UdjUfmpWkEAz9jIE3riU0r4PsZfIlH4hEMBAN7MZCmlaaV/48EA8FAMHAZDKRpBayXAeveK7LI5yo+GLgfBtK00rTStIKBYCAYuAwGXqJp8Y25+rXhXB3d7+poT07vioe7rmtPbiP73nv7jPw/pWnV53J8tqV+U65v5ir/aDPDDs/snPHTJGsBZx18+21NznF8q3GQ/8r0jHiu5bfj4cx48A1OMFW/eVn9AZ/gBR5+iFepY0d8+sh1HfFn65zZt15r3B7ZpzP9W/2L3Hs1wqc1LR/Y3AOwM8BMkaWRPOPZnz1N64y17YnlWbJnxvPZMQADf30zxZcfb6gYxQW8jC4m9uR3pPeqvLU8rY2vrfvR+Wv6M36vpvapTWvtSm0EZgoPV8lc+W65urPIVl0UJQpQBTM8ZKA0WPTXq3Hkvdqudqs/jDMfvZVf5bWJX7Uw1ligx7GRXWTxkTd26JPya3a1D52tF12uw7X42iLHajyrzj3HXUeNQY3ZzE9924MH5qDP1yp1f/Wh48OYE98+Z+1cneRq67pmOiseKj6rjYof8ihGtL0Uz5Fd88S7MdFV7SLvONT5e3HIHexI/0zPaF3YnsWhxm1LHKp8X69rDP2cZvi0pgUo3TzQWhRGoAcQnd/P0XHk4xoKL3PZEBR/9EoBtA3AAo2cRRu/tMu8Wvzgs5nW/BwVQOZp180ws+vGZE6PE/HAfvUTeXVWilxdb11X1YNf3beq5+hxj5N6Or/7aV66nP7P1lv117zB1wbYNK7KQ81t5e097v5q09i6rpneEW6UHeHHMalr2Gu3y/c4j9ZV8dPl9Uc609/1zvS4LvSN4jDbR92u8V+Ksz6Hfk7DIu5Pa1o0BcAzSnYHpzKdDzhr4+P4aNMCoLwbjvm//PLHabNhE9RNgW/61fmer/mp3Gyd8mdys021Zle9UtcBhVfPXTe2OFbGuWfQaq/q6/x+blz2rlcb6OtNyzEo6+VPHjEAJ9iTd4T2dfRz17WkG7+2XvShB5zXPWMue1Op6+32u59r53vzMtO3pGfLulxHj2u1N4vDKM7qC/28hkXsL9e0ljbXVjAJ4m/fvn1vXL7YtIIZXcpJ1a9c53suVb7SUcNRH7TKdj3KjXQwr8tXXaNj9Wm3XpFyfKefSqnrZ71LTYs4UsyIs3Gt51XXnuMe736+J3+1qHY9+kQOuZP2YlH9XV6+8zrt8ujjItT49PE1fVv1z/RsXZd2up7q76xpObfGWV5omtZPV/gVEBVc8DlfKjZ17tIxoAesXK1xjE4/HhyBWBnso5d5yFU+YxQIQL7kJ3Pqhkcfm19/qt9Vf7U7a1pLdp1fP59Hvq6XdXlRgA2O7/hTKWtxYt3EouaGwldzM4pnH+/nPd79vBfXPr+f4yN/W/CjjPiseV+z2/2sOMGnPs75nn3a56t/pqfui7ouj5lfY1Xl4TPu+qXwZ3FAvuus+nP83Cb2qXdagJJCXz++EEQjPqAEWFX+CJi0y1yBvraZkdUuvqEDsDIPPjzv2NwAykP1E3nW0IGuT85RfmQXn2cfty7FB129adU4E3t06xvynefYiGp7tL4q39fKmpfyjrzj6EE/cfTYmNU4V3seb7Vr7NU/i8EZ652tS58r7f5XHPYx1yA+yXv9qZ1H7BqPbtM87t2nXY/6jf8ov6N1Id91GQeoeowbsqM4dB3K11zk+LmNqsb7KU2rGnzn49Fd1mfGo2/a7suswXY5z1kfGxwq78703dZ751xmbZ/XhPbGPk3rjV/fMmtaXsV6lboFVMypd3Fb5lxZ5m7r7XcX3pVAWeujufpo/Y/6l/lpWg+DPCC6DoiSq+QqGAgGnoWB3Gm98Z3Ws0AWOylowUAwcBYG0rTStHJXHAwEA8HAZTCQphWwXgasZ12pRU+u+oOB62LgJZoWXx3O10qvC6KjBeCueb/ruo7mOfPeb29/ZM6f0rR8Fqp+I6l+M61v8ir/aDPDDs9ivPJPk8y+xXdmHPaC6Iy4rfnf877XxyV5v602+kajfoktz8VnfU5oycZs7CPXNbMZfhrDu2DgaU1r9jDsUqBnxXxpTh+j+PKV3Wc8U0Ox2vr14Lq2etz953xtfDTnUd6ZcXu2/+T6r29kGP8EiQ25Plha40UOkam8HKcpBAOvgYFPbVr1Cter3gqMUbGjIHH1zFXxaE6dz7HFt+qiKNFgqiw8ZKA0WPTXq3TkvRKvdqs/jDMfvZVf5bWJXxZGfRv9NAPyjkOdv6ZfOeeP1mVslEUnxR47jo1sK7+Vdh2zvCM38hM7e9arX+jrrxNyjV++fPnpbQjO0beOD8eXqHM7NpfWNdNX8VZxWG1gRwwRt47PI3Zn/oT/GgU7eXjiC3O5qnVTQWtRYHONrno7v5+j48hHOWx05lLAaFDoldJgLAQWbgsdcoBGu5zXogif4rHmJ4Wn3nkiX+2qHznsdX39vMt3YM/0dz2s17V3HY+cdzvq6vzup/Hvcmvrrfprfiz4zO86tQ02yaE6jtCZbmPruma6Oz6qHL6pp/LrMesThxVXa3arjhynSb0qBj71Tsug9E0+47MZa+Pj+GjTYgO/6k+T9Hj0871x6PPrOcUNfRRKC53xP4tWe1Vn5/dzi+/e9cQiQxIAACAASURBVGoDfbVp1aLdbTkHShz4q7w9x113P3ddSzqxv/XiDj2sre4Nc1kvBrfYXfIpY2lkr4CByzWtR4qJAXfzvupPk3gHOLvT0n/Xs0Z70ax3jhy/w0+QeJdVC7vHxLPGkPMjF0Pq6PHu53vyV5tX16M9csgdFRSe+ru8fOeFpgldEQOXalpswnrlfDTgbG6KElenHKPTjwdHV6bKYB+bzEOu8hmjcHiFO/OTOdiyIaGvF5d6RzAaX4sD8+v/QZb0e4f1bj9B0mNSsUQOiaG8Hk/5M9p19/O9zQP7/Nl4q2/4UHGojDgc4Xnmd/hpYlfAwKc2LTYzhd4rXqibbMRnQ7Lhq3zfwFuCrt1aCNY2ObLaxTd0YIt58OEd/WkS/VE/MWCtnc+4Y0txwNfetGo81WGskO88x0ZU29DRuLyZ/0t8/GAcHegnvh4bHyg+a6fTmX5iqiwy2uryXfcZ69WWa3Fd+lNp96firY/pqzgk70d/gqT6kOM0sFfFwFOa1qsu/tl+je6ynuFDLdAjexS8tQZU57EOCim08u96/G7rvWses657NOI0rTd4jdOsaXl17tX6lk3NnHoXt2XOlWXebb1XzlV8v0dTWstjmtYbNK01EGT8PTZ78pw83wEDaVppWm/xEd8dNmvWkKYTDDzp4eIEOpstGAgGgoFg4AwM5E4rd1q50woGgoFg4DIYSNMKWC8D1jOu0qIjV/vBwLUxcLhp+ewKz8zU50gqnzHOfeBx63M2nwmq+hyM63pF//Wzf5NvxiemfEvQHPiNwZovvim3FPtZHKpe9Rs7qDwostisfsNDbqa/+oiO6mcd0ya8KuO3J5f8XFp3xq5d5JK/e+XvUNPqz61QDHh4Ej5vgqBIVKBQjOoLYuvYqx1b4OoaXs1/48ybyuubN2Z8YkyOaiHvce+Fvo9zvhYHdIAD5Or8zuccv6HI8hop3xIywgly1XeO+ZvhsMv3nDI+8rP6nON7Fbrk8z75PNS0KID8CYRazPY0LefxBL9X4+id8bFHwVHWK+sleeagU1l9ntFe4JBTP0WyzpO/1X90U2wpzKyh3m2M1lVtjY7RV5uWMp0/WpOy0l7o5VfqensclJk1g84nHzQq3v2ILs73NC3msG7m8ad9/etr6evv/jg/9D6FLbm8by4PNS0KLxu/AkMetH+EQzHhytZmA6XYyGcOuiwuM77FCjnka/FBf9ejHLYebVpn+I8/+GGhheLz0rpqjPsx+rY0LfTTFEbNUp290Muv1Lz0PCpT8yEP2vmsGx5Ny3ce0sRm+rtvrpvYMVZtyRMLjCFP/qAjf+r8HN+32CW398jt6U1LYFA0KG4UFYoRBZPi6Th0L39UvChGMz3V1tbjXuCO+Dnzp+t2PVJ97HLyO0VuS9NCv7lAB+fGTZ3dB/mVztalzEgvY51v06p8m9YIJ903122D0j5UXprWPQpUzW2Ok1MwcKhpUXT4E0SzYlaL0qgYzebN+KPiZfEd6de/PXTUMGb+7OV33a5Hqp9dTn6nFu9+MdD53mnhLzpG+rsP3Rbns/Uqiw7zIQ/a+TatKkOTmenvvrGefDyYAlbxk+P3wcOhpmXRoPgBForQqFhV/qipzIrUjL9kd6RfIOPHox8PjvTP/Jzxe7OwGC+tyzWMaG9OynR+P+9NhHn6oo4Rna1L2ZFedVd8eDfkPOjWpoUP6CKns7iN+PXOa+Zn9SfH71MEk+tr5fpQ0yLJFA3/t2FBohjIg9ooLDR1jPmzIjjjd7tV/6ipCMYzmhZrfNT/WdOarUv/O0UPa6/+4N+MTzwp5Hzxo+al6t3atEZxUE9vBiN/yMVS0xrp77hChzY5Ng7MZa2MVb44cU73U37otYpX8vWe+TrctO4KmN5Y7rrOvq4tTavPyfl7Fo3kPXn/TAykabU3YtS7g36F/pmJ+ijb9S6mfoT2UfaiNwUvGAgGHsFAmlZrWo8EM3OzGYOBYCAY+FgMpGmlaf34/1A228dutsQ38Q0GHsdAmlaaVppWMBAMBAOXwUCaVsB6GbDmKvXxq9TEMDG8OgY+pGnxz/13+BLD1ZMf/1PAroCB1JPgtOL0UNMCRPVlrzwTU5vUR4GsfrOPZ3OqD3VR9Xj0FfYRr875yGPXsMV3/JjJ1+eQtuo6Y13kdvRcVH0OrD4vNZOf8Wc+zvTP4jPTM5KvvozWNtPV+eipuXBf8OxYf/4MWeZ32/LxkznQbmfr+VEd+N3XYVyk7vfqf+X1+Y5t9b3KYaPPH61txKt6+vEoL6wdubou1sw5+vHDGLjGrmcL/rsvnM/0dz729XNmu/rfY9dtV1l0928Ra2NNT9f7UeeHmxav0WGxLMifliC4H+UoetFfNzKJqwAZ2e5zRnpG8z6C55sa+k+KzGzN5OUbb/LQgTbT+QifXGMHuwKZHHBe34EID7mZ/Iw/822m3zg8Gs9u92g8mTfaF6x39PC7/pvH6ge8ivU6tvX4iA5z8/Xr1x+FUXusr+43/KeQQZFxP87iMFqnuvfS0dpGvCW9e/PS9bte9FQ7YJ8xY8k8jokd/Cpbj9f09/irs+/9WV66n9pGb9XBcT13nY/iUXuP0kNNi0XMflqChdGte1c2wF6lmFQ2c/9pDxZFIJVVV0+qmx5dNcjy4alDCk89rAG+V0xLdpmHr11+lIDuj/agyENrkR/pqLwuzzkxIUbI4Rs265x+PIvnnnV1ndjkbwR6c1bnKF95HM/4yq3p7/Fx3owuyYPT3mDwb7Serh+52b7oOpkrTvGn6iIn4lUKD5k6Vn0a7S/0Wmgc55zjaq8e4xNrgOJzlSUPdX7PG7LMmcUBndWWx6wJ3Z5D4ekzMahrrTGo8XG9o31ddXusv90vztmfPS/qlz+S0+e+Hmz2eOmHdE1/j//I/sjObJ3aRS8x9bzq9ZgLQ7Gk3GfRw02LhfaflmCBLKQHHx5BIWl1oSbYgDnPQAkOk+W4fPQxd8TXVh/TPzaBdtWzZBd5dSpf11KPu80OCsYfaVrYMnZsWvRX+/34rHVVvdrHNvHgTx5FowPcse7rjF9trek/I57a67mCj/1aNJXtFDnm933hGi2wtfCDQfhiUZ0dQ/Irrb4yH/t1vOpgvNuosh67BnzujRZ73Xd4zoXqxygO1ocqz7E2GccmflfbdR3OnfFG+9o5nfa8kAdjyDp6XrpNZI0pY9juc7SprR4vx6FL+hnv8edc+1UPvG5nxHNO14Mf1Kfqc/fNuZ9BH2paNYhenbGIvsB+7kJHG4OxURAtggIDcIw2EDpJEDZHvox42pPqX/Vb+yP/lK+0gqQeI4PeR5qWYGLToIuYuNmqDx6fuS51sib+OMc2d8vECFs1biN5edCqR13klj/Wha41/aN4Mqfr0e5InjHjyhqU3UOxyVz+xGbdF+rqa4YPD3+1PYohcnVdyDNvJgvf/YKc9me070ds8ad8XRc8dOqvMvC2xsE52uEjSeL2yy9//LEuZEbr28LDt6V19/XqT6XMNy81nvDMcZXnmDndbuexZnTwJ87X9Pf4o6Pb0f4oL/BGdnuc8IP6VPWP4t3X/azzh5pWdZLgGai+wH7uvBloRkEEIDM96OMqzQIB+LUxmtN52pOO5mqfsS6nfKX6gy1iw1odh/dI08J+3TDYQh96tVFp97euf++60Mt6qn30u7EZ7/50eX2b8R2Xrul/NJ7VTl2X/K2UTY6vVZ41dh7n8Kscx/C1X3OkHHGlwEGVR89IlnH53vlWDKqzUvTyUbnFFKo/2qvnrJc/dbift8bBecaDO1T2Ln+sS39dB9Q5W3jqdU6n+ms8+7jn5mVkU5lKldd/1lLjVmXr8Zr+rrefq2uWl9k60VPxiBy+43PFgsfIa+sz6KGmxQK745XXg28AKsBZ7Aw0BK0WYeYRwK63Bgxd+OAv4TrGnN4guh6TttWu8toYUf1hA/Z1j3xCB3L1/2vq7fLdT/xZ2hRdfhbPLetyLuur/pkfeOSBP9c08m2kR32d9nxV/cj2+PT5/Xwkz3rwkxh0+Vleuhx+9fmdpx109vk1JiMfax7Vg36Pu84at6q72/Ucmaqjzkem46z6w7g2+poZG/G0ix5iz3x18vEg60Km+yFv677WTqforx9D9nHPXdfID2UqZa3G0bmupcr14zX9Pf7IcxGjLfUZQ8bhrfmAXnxGdguWtPNZ9NSmZRDtyPVKrY8RyCXQMK6eevtci2MP2iw5VRfJwZeqpyatys7sVvnuQz1HV21CPQY1PszbIz/ys9ruxyP5pTj0+ZyzGfqVuDEiJuaL2JLbmfyMjz8ju/BG+tfi2XUtyaNfv/s8bRPDPlbPR4VZvBEn46Me9co3luqsObOoQJEnD1ygye9rYy68inNkuw1tWazwSR6UOfKgPUbVR8fqHHWNeI7pO7r0A3n5xgeqDeZW28rX9eIvfO10qq2qH53Mqzxj1uOpvu4nOhjbi/Ot+vFNG9228amxkae/nfb1qrvKzXyrMs86PtS0nuXcXjtLG2OvrsjngUYxwIbtV/WOhQYnwcBzMXCLpkWzqlcfAdFzQXTneHvFytXondeZtWXPXAUDt2haVwl2/ExhCAaCgWDgMQykaeWFubmDCAaCgWDgMhhI0wpYLwPWXKE+doWa+CV+d8BAmlaaVppWMBAMBAOXwUCa1k6w9q9+rn2t9g5XNo+ugRj5teFHdX3G/Kv7/xkxi83c1X0UBg41Lb9RNXqW4aMcVS+2ee7gH//xn368HaA3EmVntD6fsaeYOq9/k4xvL/ZnG0Z+zvyRzzrwh7jW57scvyrdW/Q/Iw5LGNrr/1XzFL/TaK6AgUNNy4WxmdceXFP2LEozoEnw4B4FHrpUcJbs7p2n7a4TPf05HmWrn31eP2cOf53/buefEYe9WHi3nGS9aWivgoFTm5aF2sVRsCnmFAQaDa9M6XcRyPiWhS13PdqoRcZj3rG2R7/zoPgMnfnJXdbSK196oR35aVxmFNv9Lo5z72iNj76MftJlpBtf8J04Q7nQUNde/Xvy5Z0p/mtvLc6MPxqHpfWiu8ez8hyDN/MfH0dxW8LPKC/hpREEA/sxcGrT6k3AQg6fosW5G57C2eUpBEfu3NRPoUE/djhe09/H1dP9pHhRrCn4HI+AdtR3/bVYSvG/Nv0aN4up6+3r6P6xHuKPjzSuP/3pzz8asBcVW/Wbty7fbdbz7l+Ps/mCun7pkTgsrbf6RTy2xLD7P8vLbF3VZo73F6nELDGrGDi1aaGYIkAxoLByzEbum95z5CxO0qNNqxdT/VCvtOrXDyi+L52vNa218Rr02bE+O16LavWP2C7d9TlfShHnTx9ZJ/P36j+ar6W44mP349E4zNbL+hkTC1Bs1diKBWM3Guv+1vWNcFh15TgFOBh4DAOnNy0KQ/+JkLqpSRgyXOH3zX80mV2/eqUzvX1eP9dP+Byv3WlZAGf21viPFuuZ/lkR7/Fx/bOm2OVn9jpfvVDG+nnX+2gcZuslh9xxQvGj2u0+1TX0sTqvrydN67GCVOOe48RyhIHTm5Z3WPUnQvqmp6hQmOD3LzCMnFzjdf0WlTX9fV4/10/szwq5vlkoPT9Ce7GuTRN92PBO8Yw7rb361+I5W3OPaz83X85/NA7mgvURJ+wZLz8OJZ/EElvYXVpb93cWty7X14Vfd/pWqPkKTXN5JgZOb1o4X4sr52xmrnD9WMbCyxgbWz6UuXsDsFQsRvq7P9j1Cnnmp+uyyFUf0XdG8+3FWpvGB9+wtdZAq2/qIK6jIg5/j/5RPLs9z5fibLyR7cX90Tiwptl60c16aR71pz2Mk7FAbuY/8R/FDfmldTEnTSsF3v0RegwLDzWtWdB70embeTbvs/lrfnp1TpGtvrJeClLl5fgYIBO3xC0YCAaWMHBq0/IqthfwtWaw5OAzx7b42WX6XcIz/Y2tbO5gIBh4Nwyc2rTeLXhZbwpGMBAMBAPPxUCa1s53DwagzwVo4p14BwPBQMVAmlaaVv4XFwwEA8HAZTCQphWwXgas9Worx7n6DgbeEwNpWmlaaVrBQDAQDFwGA7duWv2bfl6Z+dV1nsnx2SfHQt/z6i15T96DgWtg4HDTmj2btJf/kUCZNS1tro0rF3oNMCdPyVMwcH8MHG5a3q30Z7L28kcgo/GNHuClyTDGK3l8qwFveRjpgGdTGv1kSR1HTh3o460FuQu7P/jNeWhyHQxcBwOHm5ZJponw57l0L995UBohTau/dojmwsd5NkroyLa6ujw66yukbGo2rX7e5dUbeh2AJ1fJVTBwLww83LQABI2jNgNBspfvPJoRf1+/fv2u95df/vjdxqiprDWt+i64Pr+f06R895x0tC79DL3XZkg+k89g4PUx8HDTommMGsdefgULzYP53759+964aF6cj5rMyLa6urx3bnyEiUwf167zQ18fwMlRchQMvBcGDjetvf+7msmPAEdz4Q6Huy2OeYO6PzFR75x6k0G+vkW7NyXGa5Pr45wvva296x/5Ht57baDkO/kOBp6LgcNNi+JPEe8J28vv8zmnefi/K5sdenuT2dK00NM/6lO/fKgfA6Kz8usa07SeC84RNsJLDoKB98bA4aYV4Lw3cJL/5D8YCAY+AwNpWnkS/nd3y58BxNhMAQwGgoEtGEjTStNK0woGgoFg4DIYSNMKWC8D1i1XYZHJ1XowcG8MpGmlaaVpBQPBQDBwGQykaQWslwFrrqDvfQWd/Ca/WzCQppWmlaYVDAQDwcBlMJCmdUGw9ufVvDrxmTaeM8tPrtzvqnWWd/Pf6V75Pv9VzutzlfXlAa/i31X8WKoPV8JKmtaNmpab50oA1OfQ9Sa7N6975V81BzzUXx/yf1U/r+LXCBcj3quu53DTqm+OqFc/tZtzxS/YeKOFb5rwLoBAwd/6UyOvGsRn+yXA8pMr64X+o3Izwz+vHRv9tM0I/+wVsP/rr99+7A33y2gfreW9r3VJfo+f6B35A7/GYcu+rvK1bnTf6zmxY568pbhV/fpDTIkz9qC8/cYxdXZa9VQ/Z3EY5XdvfVta1yxfIz/NO5R1IYN/rrGPV9+t0cqP9Kvns+ihpmVwCWR3nMW68fqY5waR4AEe5aEGS9nQ3xfmHjfi6WuoiFcHZT/v8onx72O8FJMZ/rfGWfxbAMV8nT/aR4yzX5Rf2y/Ku7/Me7XDOuXjT123fsIb+cP+512d6Kt6ul39nMWt2qzHzLOISvFjFreZP+ghbqyHBvSnP/35e/Ma1S/sL/k5ikP1mWPjNotDl/d8tq6lfNGE+zpG8mIGW318xluKgz5/Bj3UtHCUIAAkEqTjo2A41gHI/C5vsp0TOi6mPW5r58TVTS+tTS5xHsd5KS4j/C/FeYT/WVHo+dSPzl/bL13e871+Og+qL9Buv8qBL+Wr3ChuVefomDnocGwWt2oHWf0h9vxR3Cny8EfFXv3QkZ/qc11VfpTfLt/9q/M5XlqX+1bq/t3iZ7fb/cL2iAd/pL/7/ezzw01LR+uiZgsHLFzpeEVgELu8fHWHjotpj5ubEdATsz6euI7jeAa+Kv5ncZ7hf1akev70s/Nn9mby4mQ2b+Znt6v+rqfKzZqWc2vc5M0osthyfBa3mT9Hmpa2qp91fY5Dt8at+1d1cLx1XX0e50t+drujdYx41U7VX/mfcfxw08JpQUHQASvndTEk1Y8RlCEIPVA9uFVHjv9WeHvciDfxNEZ9nPOln1xxXujfYrwnFuJ/FucZ/mdFyj3S91HP69p+6fLi5Iifa/uaeKHfZiWFP/PTuK3FGmyjQ7lZ3Gqcqz/aYXzrnZa21IOOWV6qXWWO1LfZumb5qj5WP6s8x/UjZeTg1fzIW6sRxrHbffb5oaZlILxVJSjwXDznjrFQ+CQRHp8p84/nI0l9dnBe1V6PPwAE8J1PvB1j05sTqHl51TW+sl89zhX/sziP8D8rUqy92yBf8GqxmTUDY9d1iAXG9/g58wc+fokr4zDzs/ujvP7OKLHDX8eX4jbyBx5/W5vWkp99DL34NcrvLA6uo9OldY3y1X2p8TQOvd4iY76gFRPOgW99rvJVf/f9meeHmtYzHYytY1f/iVviFgwEA3fEQJrWBZ/TuiMQs6ZjBbZfbderaK6WXz2un+X/u9l9dRzs8S9NK03r5QvbHkBH9ljzS9wSt6tgIE0rTStNKxgIBoKBy2AgTStgvQxYr3IlGD9z1xIMfBwG0rTStNK0goFgIBi4DAZu1bT4WuirfC0zV1ofd6XVY5u8Py/WPfY5//zYvxv+07RudIXFcx48d8E3yGrznvE/quCwifZ8c22vfPf73TZtX/+7nfPNv/q8mus/C+cz/dpZo3vxvFe+2383/N+qafVkvuv5bNPN+GfHae8m3Ct/tr/R9/l3C3tysIbjtfE1W4/O34vnvfJr/t99/PSmRQJ8VuSZr/Sf3WHw2pbRTz/wdDz+6eueO4NXAAX+6nu9q8K32aYb8Wu+1INu+HWd8mrclEeu8vFrLZ4z+cpXP0/qV32uY+nKuo7hj28uGOnH/xqHitsagxy/RnMz/3t+mqfmV1yRzxFO1A913DdHzPBT+cH/x+Lk7/7whz/81v+Obk4SPHt7MkXHwjHTD7CQAywAS/letGbzK9gqIC14dby+Z0u7M72vzu/+13VW3zufjeY7IZFDD5uTeHPMeH1XW5+vPPw98ZzJL+mvHwdtWe8IbzP9S7it8cvxxxajrfElj7U+iEPyiI6e5xnOkV/DCeOj+oEd7WIv+H8eNk6/0yLBXGmQUEHYQSQfSoFE3j/md/lepOr8etznzYpR19fPq85XPR7FTV97HGb8vm7noZu/r1+/fm9iv/zyx+8bF3nzJKWZdD39XPvSPu45VL1Sr3DBBePoqMec6zd0dF7tqlda9cPThnNCn1eMtsZ6Ld99XHypv47Xi6E6TlMED2BN/gyfXX8/d760j3sOFZfSik/G0fHu+D+9aZkYAmsRqCBxHMoVEOCAcm7yurz8Ond03OfdtWnN4mZMehxm/B5X58n/9u3b98ZF83Kj1E2sXuVn5/KlM/nOVx7Kmvk4CB/xwatqxvQbOjpXz5J+ZSpu5YW+VuPq+QYbfCIgJvp4z3sdnzUt+ODNpgEGuh5x0fn9XDlpH/dcqlylwf/fMPhhTYuAe8UOmEg+5z0RfjylDEWjggr5pWRWfX0eOkcfVwIA7TKHxjkqxlX3Kx1X/2vc9LHHYcavepAhP+QJvvlSxo8J68cg6lUGu1viOZNn7kg/dlgnOaKBdhz19RqTkdxMv2sxDn1uHc/x3wrIZ8Si55tc1f3bxyvezK/NSJzXddT56FYW/gg/VT8ya/VkJj/Tj2/B/98wd2rTMmHe2pI8eAS9j1kUABvy/RX6AMW5a02r60afQBs1LfwZ2a3AffXjkf+zOMz4bATy0POlPGM2AIsCuVAe2vNIzr0zW4qh/nf5mX50Yat+SUI/qz/mvY/p50h/l624XVpDxv5WSJ4Zi56vWc7BhWPkX5zU/HZdyMFjHpR1gVXnjPCjDPo7nmdxCf6PY+fUpjVL0KvzAaJF+dV9jX/HwZ7YJXbBwPUxcKhpcTXhVUulH1n4+xXRmXbTtM4H8kfmK4Xn/HwlpufGNPg/N54Vn4eaVlWQ449LTmKb2AYDwUAw8DMG0rRu9BqngPtncCceiUcwcD8MpGmlaf30jc5s8vtt8uQ0Ob0TBtK00rTStIKBYCAYuAwG0rQC1suA9U5Xi1lL7n6CgWMYSNMqTctnknzewuc0ABfH9dmNzwTcK/nymXGI7WObPnFL3K6MgTSt0rRM5KgpjHjKP5u+ki/PXnvspeAGA++NgcNNqz4ZXt9SUO9WuGPxTQQ+AV7vYii+8HlrBfyqZwRMdCO79lMjPr2OjpGfvej357T6ePUdP/nzmbSR/pHvZ/L0b/TTDLwihjjWOGO7rqHGZ5avui7ll/JV5dfyeGYsouu9C1jy/375P9S0bB4UyA4aiqONqo95bpOgCFIQlYfaDJSt1AKrjMW7UuTR7+tbRq9xGsmrk/l9fMZbikP1++xj/Ktxc73db/n4WX0w/vBG+arvRkNGPd2u+fqsONQ15fj9ildy/p45P9S0AAvFjqt5Cprg6UVTPpQC512KdypdvhbTOtfjWXFkXtXNsU1ri5/dbvcL+yMe/JF+/f0o2n3xfCkOW+Kvv0vxqP/Xq3KfEQf9DX3P4pW8v2feDzctAVOLlcUT6jiUK3fuDLwzs9h1efl1bj1ealr4UWX78ZKf3W73C10jXrVR9Vf+Rxx3X4grd5R9HdreGn/lu55qb9a0nPvMOGgz9D2LV/L+nnl/uGkBHK7i+aOpUNQ4roCiaPJKf4qfMhS3WgyR78Wy6uB41rTQM/rJgD5fP6s8xzRU/FG++wW/zlGuU/V3/tnn3T/sGs9RHGbxNxdL+cJ3xm1WUvizfD0rDmfHNfreswgm79fK+6GmZaH3IzmKPjyS38csiF6B8096vkhhkd1SBAXVrGkxTgHVHyh2uy/VT8aR6/4gU/XgH3ax4RzG9b/KV/36/BG0r6v6OIoDPoziD7/rMl91ra4L2VG+ug7lP2Lt0XmtApN8JV9nY+BQ0zrbiegLsIOBYCAYCAa2YODlmla/aq93PdwtbFlUZAL+YCAYCAbuiYGXa1oB2j2Blrwmr8FAMHAGBtK0Bm/EOCOw0ZENGgwEA8HA+RhI00rTykeuwUAwEAxcBgNpWgHrZcCaq9bzr1oT08T0ahhI07pI05p93fxqgIu/KZLBQDDwCAZu3bR6oTdQPlTLNxOv8EyR/vIMlmuA8m1Kn6uq/BynKAQDwcBdMXC4ac0K5l7+RwZ21rS0uTau3GdTGtPo6/74P3oDxmf7G/spmMFAMPBRGDjctLz671f6e/mjhVGgR3cVFGnGtv6UiU1p9BMe2HUcqh+88mj00x6Od1rfQFF/ksM4+JyZccJ/ed7lLa0LPaM31esH+PjJhgAAEadJREFUetUtLzQFIxgIBu6KgcNNy4BQhPnzXLqX7zwoRZhmQAOhYFPUpRR6izR0ZFtdzKvy6KyvPGK8vpaon3d59UqXGgp+6afynaIfue5nXZcxwFafz/maj6M54aWgBQPBwFUx8HDTYuEU3toMDMZevvMo2vx9/fr1u95ffvnjj+Jem4xF33md9ia0do4+74Kko3VVO6wRWebK73bkQ1mXuqE2rdm61prW2ni1neMUqmAgGLg6Bh5uWhRd/nog9vLrfJvRt2/fvjcumtdaca/zPe7Noxf4Pq5d5++h+Gfz6nrVg33u/KDwtNfl5SPTfVaXtMrKC01hCgaCgbti4HDT8n823DnU4Ozl17keU6i580A3x3zZwI8HZ3ckzEW+/l+pNwPGa4Pt45wvfbGh69dfKeP8zWLgWrCjzFozRi7/00oBEmOhwcK7Y+Bw06LYUqB7APfy+3zOKer+L2prcWdebyrq8eM4P+rrfMYd485FeWhd45p+fEZ3XYO61EN84PWfRFlrxszrscLWUpPt8jlPwQsGgoGrY+Bw07r6wq/kv42bhlr9nl0gVJkcp0gFA8HAnTCQppU3YvzUCO8E7qwlxToYuB8G0rQu0rSy+e63+ZLT5DQY2I+BNK00rdxpBQPBQDBwGQykaQWslwFrrkr3X5UmZonZ3TCQppWmlaYVDAQDwcBlMHDJpsW36OrXy+92JXHV9SQvuaq/Knbj93Wwe7hp9eeZ+texPxIEH1Uc+/NbNka/cs7zVfKOrg8b9ZmsM/U8qpu4jp4H2+rjR+VlzX7NW324fG3e2njNO7n3Wb61eRm/TgFMrq6Xq0NNq77Z4U5J70WfB4JrEe/jR9Z+hg7sjvSMeHt8fLRp7bF1pix58uHtM/V2XXku7noFrucw59fP4elNq1+dWkzY8L4dwrsViix8XlPkWyJoiDN+1a0OQDiTZ4xCrN1qYwTeXvR7Mezj/bwWfdbBVT829bXGQJ/gdT+Vn/FnevRn9lMsozVXP/FJfypff4iH4+jS3iwvyNQx9IuHkf6+3q13TfhE7Ov6at71H1/A2q+/fvuBCf2pc0fHrqPb6bLVbvV/tl71ioet/nS7Ob9+MU4Ot+XwUNMiuBbOWsTkr208NjbzKHoUFOWhS3yTarGEwlvSU19zhG5tqatS9VhA+sdBI7v1o766rs5XV9eBfQoafjLGOXqQn/EpdCM98IinOTGedY31GPkanzX/u03l1dnH4Y9i3uVcr02FdatzibI+cyXF3lLciKvx6X6MbCFDTNHvvJEcvJn/3U5d7yg+M/3hbytqidO943S4aQkMNh0bmo3YN6cy0F5gmNflLYIzvvr6eD+vempRXisQXU8v+n28n2sXahGVLjUt5/X1zfjY7baZ23l9vvqlfdxzqH5L9Z8YMo6Oejyy3/2pdtUrrfrhacM5S7T74Tqcox+zpqLcGsUOf0tyjHf/Z/HUL+iSzozduwgnv/vy+3DTIuBsSorObBNy5cvVqlfQFpUuv8Y3uX1eP1cPRQq/emFUT6ddD/7ycRJ6kO3j/Vy70q5/pANel1fvjM+4MlDtdF6fr5y0j3suVa5SYsLHj9iiQBsbZLr9fq6eJf3KjIq/Y50ii075Xb9+PNq00Gtz1daMVv+7P87RL6i80H0FLPF6v3id0rS4I3EzQzmvYKLQ+fGXjYRN3Tetm3vGV2cf7+fq6U3H+TPa9Wy50/JOjrl+NMex/G5rNFbjg7zxnPGJ4UgPPOIPRY9x6D54XvUzZ4v/2CZ3/MZZz3O3b65HcrP46BuUeX1uHfe4N626LvWIz6WfeVHfjGJniz/O13/iMlrvLD51fv2/2FG+80Lfr8DfMeeHmhbF0LsXKMXOQmnxc9xNzoaHxybkH+Gc9yJnkV3iY0vdUIu0lCSpx6LQ5eGPktl9t9B1vnbRw/o4r+vSh2rXODDmHMaJQ+fVeFbZyu9zluKJ7OzPvKDbH9tEtue4+1+L6VJ8+ph6Rvq7bF/v0hrQV8dHcSNfe5pW90ffq5163OWr/6P1MrfPqTY4rnHW1l6+80Ln+yCxuU5sDjWtqySYQmFTwGcKxOiK9yrriZ/X2VjJVXIVDHwMBm7dtPpVLHc2/Yo8wPoYYCWuiWswEAx8BAZu3bQ+ImDRmY0YDAQDwcDnYSBNa+H/PQHm5wEzsU/sg4FgYISBNK00rZ++wDACSXgpHsFAMPAqGEjTStNK0woGgoFg4DIYuFXT4ksW9WvGr3JlED9ylRoMBAPBwDkYeKhpzZ4XMTn9K+fyH6F8I7A+k1V1vVLTWvKz+lyP67cdR8/nVNlnHPuc25YLAX2vfjvf59V87g3fwY78OqePIQeP3Cpf9TCmnernSF65kZ4lf7CRv8QgGHgNDBxuWhQAnoEavRnB5D67aWn3FeiRpkXhtEi/whrwhQYxu0jQR99A8eXLl8Xn4MALOpUnRuioOGG8PlvHeJdHhj/tc1z9FJvot1FVeedt8UfZ0NcoWMlD8nC4aVFIeAcdtL6fj3OunL2atTDUQlQLepX3SplCg87+ExLoUK8UnoUJnjoEd73irlf0I7sUNuwiB6UQqm8kzzqwjyy21T/zU59mlHn46/gsDozXdenjkv/q7LT6qh5kWO9fH8T+8lPTqrFmzbUZEI/Zw9vOw2/ksOVa8QE9FRfVT+SQkYdvxBydMz+VhaK7+glviz9VR45TLIOB18DA4aZFEaCYsPkpIBSPXrQsNr0YLfFpFBYUC1WdX487iPpY9a3Kdjn8wS5rspjSgP70pz9/X9tMHj7yFkToyOdqe3TMPJuwFD2zOFiosY++Nf+RH9ntPPOiXc772vHL9fb5yPamZYxYl7FhnjbgYwcefoKlfhHg+piDHHoqTkZ+6pt2tLHHH3WEvkaxSh6SBzBwqGlRCGxUKKGI8UdhqIWpnsO3cHjMuUVaajGq+itYexFdG8NWLYzIz+y6DosntvBjJt99Qc7197Hq5+zYuDje4yy/2oGnrZn/S02LOcYeig/wRuvQDlRfKoXfm1YdRyd/NhLsMMfGb5yhzIOKB+bpJ3fg5GXm58hm5Xm85o9yoSmWwcDrYOBQ06IIcidiEYFSXHoxrefM6T9pUccrKGbFGpmlwrk0ZtHD5swuRZC/UdNifvVx5EvVu+RL1+M5NtDh+SwO1U71Y+b/rGnBp2E4jl4bSs2tx2trYnypaaFfnNiM8B/7zqMZ4UNdF3qNCXTNT8aRI57VTtWhniV/ut0+P+evU8iSi/fJxaGmZXEUKBYziw/n/FEQLfYUIo7rFzeQsVipCzor1ozN5jhGEUKm6vNYv2c6HGcdFE/kpCM/Ga/2KJaud2ZDX0aUuRZcxmdxqHFGDr/xY+Y/8iN7VQ+20KH/ytc1KoMdxytdWzO6mVvtMp81G8caZ/nY1c7MRvUTWWNS56pDuubP0lx1hL5PsUyuXyPXh5oWBaYWV5JpwYVyZU7Dqj91gQyFxC8rCAD0eCUPRYZiQbOYFVtknIM9Chb25EEtgpXPMbLYHtlFL3/YtVnpx0i+F0pk8Me1dT/lz6gxdHwpDlW361ryX52dmi/y4k/GVJm+xh5rbHbeLP7IqnvkP2PE3rt410UcyCd6O37UV/2sOsSEuqDytvij/tDXKFjJQ/JwqGkFOAFOMBAMBAPBwGdgIE0rD47+uPv5DADGZgpfMBAM7MFAmlaaVppWMBAMBAOXwUCaVsB6GbDuuRqLbK7eg4F7YiBNK00rTSsYCAaCgctgIE0rYL0MWHPlfM8r5+Q1ed2DgVs1Lb5y7leb9wQhstk0wUAwEAxcAwMPNS2ec5k9NwMA+nNLZ4CiPo/T9b1S01rys/vteX3eaSmuyj9KiZfPLEl5Hmr2UG19Xgr5JVl8e1QeG/jY11lxZcyOxKvq6TZyfo0Cljy9X54ONy0KEg+m1jdcdAB9RFE40gy6X884P+InFwH1gddn+Flt7M0X+d/j75o8mPJh7upXP9ZPHiL+6xs0ln8Spc/3XD2eh75fAUzOr5fzw02LgpGfJrn+T5O4aXvD6HdJvTk5TuFHh+fesR2R7z7oG7S/5YIG6DgXCPX1T0v+zPSs+a+t0OsVueTsXjk73LQoShSsWmh68fBKtt91LPH9yAlqYarz63EHYx+rvlXZLoc/2GNN/E+Mcz5ueqefJjEnxml2V0TsfBWS+WHOGfK9cYgFbNam1H3t4zN/ulzVM/PfeITeq/Aln9fN56Gm1ZsBxd4mVgtZLwqcW1A45s8rc6mFavYxEYUHGWgH3mgMf/r/RmZ2XQdX4/XdgzP5bg8519/Huq+jc+aiw7EeZ/nVDjxtzfxnPc4dUZuFttUHHcnLw1/+Plq+r7efY782tZk/fZ7nM3nXGXrdApfc3S93h5pW/4iFpkAjsQgIlHrOnPw0yTKAPqtpkScvFsjd1iLuvI+UNybQEa70N01rGVvGLjRxujoGDjUtr+hdvEWLxkTx4Jw/Pkay2HA1z3H94gYytdiob3aHwfhsjmOzuzDG9Xumw3HWUe+0ZvLwq73apGdzXOOIWqAdm8Whxtl14cfMf+TV2Wm/y2JcHvq6fD3HX2Q+Qr7qrOslrhVX+NNjXedWf2d6ZvJ1bo5T7IOB18DAoaZFgaRA1yRacKHceVFY8tMkP/+ESo3X6NgYOkYxnX1MSrPwI1ViTeE+0rS8W8KWdqE2B22ge8RzzmhsxDsqP8JV1+8dP2vpY/iP7ZGe2Xr1NfQ1ilXykDyAgUNNK+AJeIKBYCAYCAY+AwNpWnmN0093WJ8BwthM8QsGgoGtGEjTStNK0woGgoFg4DIYSNMKWC8D1q1XYpHLVXswcF8MpGmlaaVpBQPBQDBwGQykaQWslwFrrp7ve/Wc3Ca3WzGQppWmlaYVDAQDwcBlMHC4afF8j8/wQPtzW1u75iNy2OS5m0d0jObOnl0ayYaXK8RgIBgIBp6HgUNNq75Z4DOTlab1PKB8Zp5jO3kOBoIBMXB60/KVON6F9TcRwPcNDry1gDsl3voAf8sP+dEwkVO/d1o0MHlb9Fc9yhsUxvCpvyXC8dBsoGAgGAgGPgcDh5oWyfJ1ODYNE8i5jUpep94h+aod5aFdX52LfH1XoXr6nR983wlIQ+r60eM4+pW3SaVpfQ4Ya65znBwEA8HACAOHm5bKbF4U/t4MlIHSOLwTgjKvy9uE6rx63Mc9lypb9fbmhF3kqy8cI1ebFm+kV19oNk8wEAwEA6+BgYebFomkCdgcpDXB3LlwxwNV/rObFvarjzl+DUAmD8lDMBAMLGHglKbFXZR3KlA/jtNw/fjO/3kdaVpVD3dTNEL0VD429afeccH3jgx+/ZhRP6XI9f9zORaaDRUMBAPBwOdh4FDT6h+v1QJvM/HjNxsYzQUeX6L49ddvhz4eBCjqwWb96RPsaFN/Zk0LPX0N+umYOgLOzwNnYp/YBwPBQMfAoabVleQ8wAoGgoFgIBh4BgbStPIkfP63FwwEA8HAZTCQphWwXgasz7iKi43cLQQDr42BNK00rTStYCAYCAYug4E0rYD1MmDNFfBrXwEnP8nPMzCQppWmlaYVDAQDwcBlMJCmdRGwLn19/xlXN7GRq+hgIBh4BQzcumn1Qm/AfcCZ57qu8DyW/vJsmWuA8sxafb6sjuU4BSYYCAbuiIHDTWtWMPfyPzKos6alzbVx5T6b0piIa/cD/5fe7NHlc54iFgwEA1fHwOGm5dV/v9Lfyx8FkAI9uqugSDO29adMbEq8/Na3cfj+Q+w6DtUPxv3pky13YfXNGvWnVYyDb+kwTvgvT/1L60IP661+6ysUvequ/BynOAUDwcAdMXC4aRkMijB/nkv38p0HpQjTDCjUFGyKupRCb5GGjmyri3lVHp2+IxEZxusLfvt5l1evdKmh4Jd+Kt8p+pHrftZ1GQNs9fmcr/k4mhNeilkwEAxcFQMPNy0WTuGtzcBg7OU7j6LNH+8WRO8vv/zxR3GvTcai77xOexNaO0efd0HS0bqqHdaILHPldzvyoaxL3VCb1mxda01rbbzaznEKVTAQDFwdA/8fa4kTRcDb5MIAAAAASUVORK5CYII=;" parent="1" vertex="1">
                    <mxGeometry x="700" y="130" width="429" height="324" as="geometry"/>
                </mxCell>
                <mxCell id="6" value="Tämä poistui kun vain posti bluethootin päälle ja takaisin kytkemiset" style="whiteSpace=wrap;html=1;" parent="1" vertex="1">
                    <mxGeometry x="700" y="470" width="120" height="60" as="geometry"/>
                </mxCell>
                <mxCell id="7" value="Tätä ei ole enää näkynyt" style="text;html=1;strokeColor=none;fillColor=none;align=center;verticalAlign=middle;whiteSpace=wrap;rounded=0;" parent="1" vertex="1">
                    <mxGeometry x="310" y="50" width="60" height="30" as="geometry"/>
                </mxCell>
            </root>
        </mxGraphModel>
    </diagram>
</mxfile>